<?xml version="1.0" standalone="no"?>
<!DOCTYPE svg PUBLIC "-//W3C//DTD SVG 1.1//EN" "http://www.w3.org/Graphics/SVG/1.1/DTD/svg11.dtd" >
<svg>
<metadata>
Created by FontForge 20110222 at Mon Mar  7 11:15:30 2011
 By www-data
Copyright (c) 2007 by George Triantafyllakos. All rights reserved.
</metadata>
<defs>
<font id="BPdotsUnicaseSquare" horiz-adv-x="600" >
  <font-face 
    font-family="BPdotsUnicaseSquare"
    font-weight="400"
    font-stretch="normal"
    units-per-em="1000"
    panose-1="2 0 5 6 0 0 0 2 0 4"
    ascent="800"
    descent="-200"
    x-height="475"
    cap-height="475"
    bbox="0 -200 575 875"
    underline-thickness="50"
    underline-position="-50"
    unicode-range="U+0020-2122"
  />
    <missing-glyph />
    <glyph glyph-name="B" unicode="B" 
d="M0 0v75h75v-75h-75zM400 100v75h75v-75h-75zM100 0v75h75v-75h-75zM300 0v75h75v-75h-75zM100 200v75h75v-75h-75zM0 200v75h75v-75h-75zM300 200v75h75v-75h-75zM400 300v75h75v-75h-75zM0 400v75h75v-75h-75zM100 400v75h75v-75h-75zM200 0v75h75v-75h-75zM0 300v75h75
v-75h-75zM0 100v75h75v-75h-75zM200 200v75h75v-75h-75zM300 400v75h75v-75h-75zM200 400v75h75v-75h-75z" />
    <glyph glyph-name="C" unicode="C" 
d="M100 0v75h75v-75h-75zM400 0v75h75v-75h-75zM300 0v75h75v-75h-75zM100 400v75h75v-75h-75zM0 100v75h75v-75h-75zM0 300v75h75v-75h-75zM0 200v75h75v-75h-75zM200 400v75h75v-75h-75zM200 0v75h75v-75h-75zM300 400v75h75v-75h-75zM400 400v75h75v-75h-75z" />
    <glyph glyph-name="D" unicode="D" 
d="M0 0v75h75v-75h-75zM400 100v75h75v-75h-75zM400 300v75h75v-75h-75zM100 400v75h75v-75h-75zM200 0v75h75v-75h-75zM0 100v75h75v-75h-75zM0 300v75h75v-75h-75zM100 0v75h75v-75h-75zM0 400v75h75v-75h-75zM200 400v75h75v-75h-75zM0 200v75h75v-75h-75zM400 200v75h75
v-75h-75zM300 400v75h75v-75h-75zM300 0v75h75v-75h-75z" />
    <glyph glyph-name="E" unicode="E" 
d="M0 0v75h75v-75h-75zM400 0v75h75v-75h-75zM100 200v75h75v-75h-75zM300 0v75h75v-75h-75zM300 400v75h75v-75h-75zM0 200v75h75v-75h-75zM300 200v75h75v-75h-75zM0 400v75h75v-75h-75zM100 400v75h75v-75h-75zM200 400v75h75v-75h-75zM200 0v75h75v-75h-75zM0 300v75h75
v-75h-75zM0 100v75h75v-75h-75zM200 200v75h75v-75h-75zM400 400v75h75v-75h-75zM100 0v75h75v-75h-75z" />
    <glyph glyph-name="F" unicode="F" 
d="M0 0v75h75v-75h-75zM200 400v75h75v-75h-75zM0 200v75h75v-75h-75zM300 400v75h75v-75h-75zM0 300v75h75v-75h-75zM100 400v75h75v-75h-75zM0 100v75h75v-75h-75zM200 200v75h75v-75h-75zM300 200v75h75v-75h-75zM0 400v75h75v-75h-75zM400 400v75h75v-75h-75zM100 200
v75h75v-75h-75z" />
    <glyph glyph-name="G" unicode="G" 
d="M100 0v75h75v-75h-75zM0 300v75h75v-75h-75zM0 200v75h75v-75h-75zM0 100v75h75v-75h-75zM400 100v75h75v-75h-75zM400 400v75h75v-75h-75zM100 400v75h75v-75h-75zM400 0v75h75v-75h-75zM200 0v75h75v-75h-75zM200 400v75h75v-75h-75zM300 0v75h75v-75h-75zM400 200v75
h75v-75h-75zM300 200v75h75v-75h-75zM300 400v75h75v-75h-75z" />
    <glyph glyph-name="H" unicode="H" 
d="M0 0v75h75v-75h-75zM400 300v75h75v-75h-75zM0 100v75h75v-75h-75zM0 400v75h75v-75h-75zM100 200v75h75v-75h-75zM400 200v75h75v-75h-75zM400 400v75h75v-75h-75zM0 300v75h75v-75h-75zM400 0v75h75v-75h-75zM200 200v75h75v-75h-75zM0 200v75h75v-75h-75zM300 200v75
h75v-75h-75zM400 100v75h75v-75h-75z" />
    <glyph glyph-name="I" unicode="I" 
d="M100 0v75h75v-75h-75zM200 400v75h75v-75h-75zM400 0v75h75v-75h-75zM300 400v75h75v-75h-75zM300 0v75h75v-75h-75zM0 400v75h75v-75h-75zM200 300v75h75v-75h-75zM100 400v75h75v-75h-75zM0 0v75h75v-75h-75zM200 0v75h75v-75h-75zM200 200v75h75v-75h-75zM400 400v75
h75v-75h-75zM200 100v75h75v-75h-75z" />
    <glyph glyph-name="J" unicode="J" 
d="M100 0v75h75v-75h-75zM300 100v75h75v-75h-75zM300 200v75h75v-75h-75zM0 400v75h75v-75h-75zM300 400v75h75v-75h-75zM100 400v75h75v-75h-75zM300 300v75h75v-75h-75zM200 400v75h75v-75h-75zM200 0v75h75v-75h-75zM0 100v75h75v-75h-75z" />
    <glyph glyph-name="K" unicode="K" 
d="M0 0v75h75v-75h-75zM0 300v75h75v-75h-75zM400 0v75h75v-75h-75zM100 200v75h75v-75h-75zM400 100v75h75v-75h-75zM0 200v75h75v-75h-75zM0 100v75h75v-75h-75zM200 200v75h75v-75h-75zM0 400v75h75v-75h-75zM400 300v75h75v-75h-75zM300 200v75h75v-75h-75zM400 400v75
h75v-75h-75z" />
    <glyph glyph-name="L" unicode="L" 
d="M0 0v75h75v-75h-75zM0 300v75h75v-75h-75zM400 0v75h75v-75h-75zM0 200v75h75v-75h-75zM200 0v75h75v-75h-75zM0 100v75h75v-75h-75zM100 0v75h75v-75h-75zM0 400v75h75v-75h-75zM300 0v75h75v-75h-75z" />
    <glyph glyph-name="M" unicode="M" 
d="M0 0v75h75v-75h-75zM0 400v75h75v-75h-75zM200 200v75h75v-75h-75zM400 300v75h75v-75h-75zM200 100v75h75v-75h-75zM100 300v75h75v-75h-75zM300 300v75h75v-75h-75zM0 200v75h75v-75h-75zM0 300v75h75v-75h-75zM400 100v75h75v-75h-75zM0 100v75h75v-75h-75zM400 200
v75h75v-75h-75zM400 400v75h75v-75h-75zM400 0v75h75v-75h-75z" />
    <glyph glyph-name="N" unicode="N" 
d="M0 0v75h75v-75h-75zM400 400v75h75v-75h-75zM300 100v75h75v-75h-75zM200 200v75h75v-75h-75zM100 300v75h75v-75h-75zM0 300v75h75v-75h-75zM0 100v75h75v-75h-75zM400 0v75h75v-75h-75zM400 100v75h75v-75h-75zM0 400v75h75v-75h-75zM400 300v75h75v-75h-75zM0 200v75
h75v-75h-75zM400 200v75h75v-75h-75z" />
    <glyph glyph-name="P" unicode="P" 
d="M0 0v75h75v-75h-75zM100 200v75h75v-75h-75zM300 200v75h75v-75h-75zM200 400v75h75v-75h-75zM0 300v75h75v-75h-75zM0 200v75h75v-75h-75zM100 400v75h75v-75h-75zM200 200v75h75v-75h-75zM0 100v75h75v-75h-75zM400 300v75h75v-75h-75zM300 400v75h75v-75h-75zM0 400
v75h75v-75h-75z" />
    <glyph glyph-name="Q" unicode="Q" 
d="M100 0v75h75v-75h-75zM400 300v75h75v-75h-75zM200 0v75h75v-75h-75zM0 300v75h75v-75h-75zM100 400v75h75v-75h-75zM0 100v75h75v-75h-75zM400 100v75h75v-75h-75zM200 100v75h75v-75h-75zM300 0v75h75v-75h-75zM0 200v75h75v-75h-75zM300 400v75h75v-75h-75zM200 400
v75h75v-75h-75zM400 200v75h75v-75h-75zM300 -200v75h75v-75h-75zM200 -100v75h75v-75h-75z" />
    <glyph glyph-name="R" unicode="R" 
d="M0 0v75h75v-75h-75zM200 200v75h75v-75h-75zM400 300v75h75v-75h-75zM0 200v75h75v-75h-75zM200 400v75h75v-75h-75zM100 400v75h75v-75h-75zM400 0v75h75v-75h-75zM300 100v75h75v-75h-75zM0 300v75h75v-75h-75zM0 100v75h75v-75h-75zM100 200v75h75v-75h-75zM300 200
v75h75v-75h-75zM300 400v75h75v-75h-75zM0 400v75h75v-75h-75z" />
    <glyph glyph-name="S" unicode="S" 
d="M0 0v75h75v-75h-75zM300 0v75h75v-75h-75zM300 200v75h75v-75h-75zM0 300v75h75v-75h-75zM100 400v75h75v-75h-75zM200 400v75h75v-75h-75zM100 0v75h75v-75h-75zM200 200v75h75v-75h-75zM200 0v75h75v-75h-75zM300 400v75h75v-75h-75zM400 100v75h75v-75h-75zM400 400
v75h75v-75h-75zM100 200v75h75v-75h-75z" />
    <glyph glyph-name="T" unicode="T" 
d="M200 0v75h75v-75h-75zM100 400v75h75v-75h-75zM0 400v75h75v-75h-75zM200 400v75h75v-75h-75zM200 200v75h75v-75h-75zM300 400v75h75v-75h-75zM200 300v75h75v-75h-75zM400 400v75h75v-75h-75zM200 100v75h75v-75h-75z" />
    <glyph glyph-name="U" unicode="U" 
d="M100 0v75h75v-75h-75zM400 100v75h75v-75h-75zM300 0v75h75v-75h-75zM400 300v75h75v-75h-75zM0 100v75h75v-75h-75zM400 200v75h75v-75h-75zM0 200v75h75v-75h-75zM0 400v75h75v-75h-75zM200 0v75h75v-75h-75zM400 400v75h75v-75h-75zM0 300v75h75v-75h-75z" />
    <glyph glyph-name="W" unicode="W" 
d="M100 0v75h75v-75h-75zM0 300v75h75v-75h-75zM0 200v75h75v-75h-75zM400 200v75h75v-75h-75zM200 300v75h75v-75h-75zM400 300v75h75v-75h-75zM300 0v75h75v-75h-75zM0 100v75h75v-75h-75zM400 400v75h75v-75h-75zM400 100v75h75v-75h-75zM0 400v75h75v-75h-75zM200 100
v75h75v-75h-75zM200 200v75h75v-75h-75z" />
    <glyph glyph-name="V" unicode="V" 
d="M200 0v75h75v-75h-75zM0 300v75h75v-75h-75zM400 300v75h75v-75h-75zM400 200v75h75v-75h-75zM300 100v75h75v-75h-75zM0 200v75h75v-75h-75zM100 100v75h75v-75h-75zM400 400v75h75v-75h-75zM0 400v75h75v-75h-75z" />
    <glyph glyph-name="X" unicode="X" 
d="M0 0v75h75v-75h-75zM400 300v75h75v-75h-75zM400 400v75h75v-75h-75zM100 200v75h75v-75h-75zM0 100v75h75v-75h-75zM400 0v75h75v-75h-75zM200 200v75h75v-75h-75zM300 200v75h75v-75h-75zM0 400v75h75v-75h-75zM400 100v75h75v-75h-75zM0 300v75h75v-75h-75z" />
    <glyph glyph-name="Y" unicode="Y" 
d="M200 0v75h75v-75h-75zM100 200v75h75v-75h-75zM0 300v75h75v-75h-75zM300 200v75h75v-75h-75zM400 300v75h75v-75h-75zM0 400v75h75v-75h-75zM200 100v75h75v-75h-75zM400 400v75h75v-75h-75z" />
    <glyph glyph-name="Z" unicode="Z" 
d="M0 0v75h75v-75h-75zM300 0v75h75v-75h-75zM300 300v75h75v-75h-75zM0 400v75h75v-75h-75zM100 400v75h75v-75h-75zM200 400v75h75v-75h-75zM100 0v75h75v-75h-75zM200 200v75h75v-75h-75zM200 0v75h75v-75h-75zM300 400v75h75v-75h-75zM400 0v75h75v-75h-75zM400 400v75
h75v-75h-75zM100 100v75h75v-75h-75z" />
    <glyph glyph-name="backslash" unicode="\" 
d="M400 -100v75h75v-75h-75zM400 0v75h75v-75h-75zM100 500v75h75v-75h-75zM100 400v75h75v-75h-75zM300 100v75h75v-75h-75zM200 200v75h75v-75h-75zM200 300v75h75v-75h-75z" />
    <glyph glyph-name="bracketright" unicode="]" 
d="M200 -100v75h75v-75h-75zM300 300v75h75v-75h-75zM300 400v75h75v-75h-75zM300 200v75h75v-75h-75zM300 0v75h75v-75h-75zM300 100v75h75v-75h-75zM200 500v75h75v-75h-75zM300 500v75h75v-75h-75zM300 -100v75h75v-75h-75z" />
    <glyph glyph-name="asciicircum" unicode="^" 
d="M100 600v75h75v-75h-75zM200 700v75h75v-75h-75zM300 600v75h75v-75h-75z" />
    <glyph glyph-name="underscore" unicode="_" 
d="M0 0v75h75v-75h-75zM100 0v75h75v-75h-75zM200 0v75h75v-75h-75zM400 0v75h75v-75h-75zM300 0v75h75v-75h-75z" />
    <glyph glyph-name="grave" unicode="`" 
d="M200 600v75h75v-75h-75zM100 600v75h75v-75h-75zM0 700v75h75v-75h-75z" />
    <glyph glyph-name="exclam" unicode="!" 
d="M200 0v75h75v-75h-75zM200 300v75h75v-75h-75zM200 200v75h75v-75h-75zM200 400v75h75v-75h-75z" />
    <glyph glyph-name="quotedbl" unicode="&#x22;" 
d="M200 500v75h75v-75h-75zM400 500v75h75v-75h-75zM400 400v75h75v-75h-75zM300 300v75h75v-75h-75zM100 300v75h75v-75h-75zM200 400v75h75v-75h-75z" />
    <glyph glyph-name="numbersign" unicode="#" 
d="M100 0v75h75v-75h-75zM300 100v75h75v-75h-75zM0 100v75h75v-75h-75zM300 400v75h75v-75h-75zM100 400v75h75v-75h-75zM100 100v75h75v-75h-75zM0 300v75h75v-75h-75zM200 300v75h75v-75h-75zM300 0v75h75v-75h-75zM400 300v75h75v-75h-75zM300 200v75h75v-75h-75z
M100 300v75h75v-75h-75zM200 100v75h75v-75h-75zM400 100v75h75v-75h-75zM100 200v75h75v-75h-75zM300 300v75h75v-75h-75z" />
    <glyph glyph-name="dollar" unicode="$" 
d="M0 0v75h75v-75h-75zM200 0v75h75v-75h-75zM200 200v75h75v-75h-75zM0 300v75h75v-75h-75zM200 300v75h75v-75h-75zM200 500v75h75v-75h-75zM300 0v75h75v-75h-75zM200 400v75h75v-75h-75zM300 200v75h75v-75h-75zM200 100v75h75v-75h-75zM400 100v75h75v-75h-75zM400 400
v75h75v-75h-75zM100 200v75h75v-75h-75zM300 400v75h75v-75h-75zM100 400v75h75v-75h-75zM200 -100v75h75v-75h-75zM100 0v75h75v-75h-75z" />
    <glyph glyph-name="percent" unicode="%" 
d="M200 0v75h75v-75h-75zM200 300v75h75v-75h-75zM0 0v75h75v-75h-75zM0 300v75h75v-75h-75zM300 400v75h75v-75h-75zM100 100v75h75v-75h-75zM100 300v75h75v-75h-75zM100 200v75h75v-75h-75zM0 400v75h75v-75h-75zM300 0v75h75v-75h-75zM300 100v75h75v-75h-75zM200 100
v75h75v-75h-75zM100 400v75h75v-75h-75z" />
    <glyph glyph-name="ampersand" unicode="&#x26;" 
d="M200 0v75h75v-75h-75zM200 200v75h75v-75h-75zM300 100v75h75v-75h-75zM0 100v75h75v-75h-75zM100 200v75h75v-75h-75zM200 400v75h75v-75h-75zM100 400v75h75v-75h-75zM100 0v75h75v-75h-75zM0 300v75h75v-75h-75zM300 200v75h75v-75h-75zM400 200v75h75v-75h-75z" />
    <glyph glyph-name="quotesingle" unicode="'" 
d="M200 300v75h75v-75h-75zM300 400v75h75v-75h-75zM300 500v75h75v-75h-75z" />
    <glyph glyph-name="parenleft" unicode="(" 
d="M300 -100v75h75v-75h-75zM200 0v75h75v-75h-75zM200 400v75h75v-75h-75zM200 300v75h75v-75h-75zM200 100v75h75v-75h-75zM300 500v75h75v-75h-75zM200 200v75h75v-75h-75z" />
    <glyph glyph-name="parenright" unicode=")" 
d="M200 -100v75h75v-75h-75zM300 0v75h75v-75h-75zM300 400v75h75v-75h-75zM300 300v75h75v-75h-75zM300 100v75h75v-75h-75zM200 500v75h75v-75h-75zM300 200v75h75v-75h-75z" />
    <glyph glyph-name="asterisk" unicode="*" 
d="M0 300v75h75v-75h-75zM200 300v75h75v-75h-75zM100 400v75h75v-75h-75zM0 500v75h75v-75h-75zM200 500v75h75v-75h-75z" />
    <glyph glyph-name="plus" unicode="+" 
d="M200 0v75h75v-75h-75zM200 300v75h75v-75h-75zM200 200v75h75v-75h-75zM400 200v75h75v-75h-75zM0 200v75h75v-75h-75zM300 200v75h75v-75h-75zM200 100v75h75v-75h-75zM200 400v75h75v-75h-75zM100 200v75h75v-75h-75z" />
    <glyph glyph-name="comma" unicode="," 
d="M200 0v75h75v-75h-75zM100 -100v75h75v-75h-75zM200 100v75h75v-75h-75z" />
    <glyph glyph-name="hyphen" unicode="-" 
d="M100 200v75h75v-75h-75zM300 200v75h75v-75h-75zM200 200v75h75v-75h-75z" />
    <glyph glyph-name="period" unicode="." 
d="M200 0v75h75v-75h-75zM200 100v75h75v-75h-75z" />
    <glyph glyph-name="slash" unicode="/" 
d="M100 -100v75h75v-75h-75zM400 400v75h75v-75h-75zM100 0v75h75v-75h-75zM300 300v75h75v-75h-75zM200 100v75h75v-75h-75zM400 500v75h75v-75h-75zM300 200v75h75v-75h-75z" />
    <glyph glyph-name="zero" unicode="0" 
d="M100 0v75h75v-75h-75zM200 400v75h75v-75h-75zM200 0v75h75v-75h-75zM400 200v75h75v-75h-75zM300 300v75h75v-75h-75zM0 100v75h75v-75h-75zM0 300v75h75v-75h-75zM100 100v75h75v-75h-75zM400 300v75h75v-75h-75zM100 400v75h75v-75h-75zM200 200v75h75v-75h-75zM300 0
v75h75v-75h-75zM0 200v75h75v-75h-75zM400 100v75h75v-75h-75zM300 400v75h75v-75h-75z" />
    <glyph glyph-name="one" unicode="1" 
d="M0 0v75h75v-75h-75zM200 400v75h75v-75h-75zM200 0v75h75v-75h-75zM200 300v75h75v-75h-75zM300 0v75h75v-75h-75zM200 200v75h75v-75h-75zM200 100v75h75v-75h-75zM400 0v75h75v-75h-75zM100 0v75h75v-75h-75zM0 400v75h75v-75h-75zM100 400v75h75v-75h-75z" />
    <glyph glyph-name="two" unicode="2" 
d="M0 0v75h75v-75h-75zM100 0v75h75v-75h-75zM400 300v75h75v-75h-75zM200 200v75h75v-75h-75zM100 400v75h75v-75h-75zM0 300v75h75v-75h-75zM300 200v75h75v-75h-75zM200 0v75h75v-75h-75zM100 100v75h75v-75h-75zM200 400v75h75v-75h-75zM400 0v75h75v-75h-75zM300 400
v75h75v-75h-75zM300 0v75h75v-75h-75z" />
    <glyph glyph-name="three" unicode="3" 
d="M200 200v75h75v-75h-75zM100 400v75h75v-75h-75zM200 0v75h75v-75h-75zM400 100v75h75v-75h-75zM300 0v75h75v-75h-75zM0 400v75h75v-75h-75zM0 0v75h75v-75h-75zM100 0v75h75v-75h-75zM400 300v75h75v-75h-75zM300 200v75h75v-75h-75zM200 400v75h75v-75h-75zM100 200
v75h75v-75h-75zM300 400v75h75v-75h-75z" />
    <glyph glyph-name="four" unicode="4" 
d="M300 200v75h75v-75h-75zM300 100v75h75v-75h-75zM0 100v75h75v-75h-75zM200 100v75h75v-75h-75zM300 300v75h75v-75h-75zM400 100v75h75v-75h-75zM100 100v75h75v-75h-75zM200 300v75h75v-75h-75zM300 0v75h75v-75h-75zM100 200v75h75v-75h-75zM300 400v75h75v-75h-75z
" />
    <glyph glyph-name="five" unicode="5" 
d="M0 0v75h75v-75h-75zM100 0v75h75v-75h-75zM300 400v75h75v-75h-75zM100 400v75h75v-75h-75zM200 400v75h75v-75h-75zM300 0v75h75v-75h-75zM100 200v75h75v-75h-75zM400 100v75h75v-75h-75zM400 400v75h75v-75h-75zM0 300v75h75v-75h-75zM300 200v75h75v-75h-75zM200 0
v75h75v-75h-75zM200 200v75h75v-75h-75zM0 200v75h75v-75h-75zM0 400v75h75v-75h-75z" />
    <glyph glyph-name="six" unicode="6" 
d="M100 0v75h75v-75h-75zM0 100v75h75v-75h-75zM300 400v75h75v-75h-75zM400 100v75h75v-75h-75zM200 400v75h75v-75h-75zM200 0v75h75v-75h-75zM100 200v75h75v-75h-75zM200 200v75h75v-75h-75zM0 200v75h75v-75h-75zM100 400v75h75v-75h-75zM300 200v75h75v-75h-75zM300 0
v75h75v-75h-75zM0 300v75h75v-75h-75z" />
    <glyph glyph-name="seven" unicode="7" 
d="M100 0v75h75v-75h-75zM200 100v75h75v-75h-75zM0 400v75h75v-75h-75zM200 400v75h75v-75h-75zM300 200v75h75v-75h-75zM100 400v75h75v-75h-75zM300 400v75h75v-75h-75zM400 400v75h75v-75h-75zM400 300v75h75v-75h-75z" />
    <glyph glyph-name="eight" unicode="8" 
d="M100 0v75h75v-75h-75zM200 400v75h75v-75h-75zM200 0v75h75v-75h-75zM0 300v75h75v-75h-75zM300 0v75h75v-75h-75zM100 400v75h75v-75h-75zM100 200v75h75v-75h-75zM200 200v75h75v-75h-75zM400 300v75h75v-75h-75zM300 200v75h75v-75h-75zM400 100v75h75v-75h-75z
M300 400v75h75v-75h-75zM0 100v75h75v-75h-75z" />
    <glyph glyph-name="nine" unicode="9" 
d="M100 0v75h75v-75h-75zM300 400v75h75v-75h-75zM300 0v75h75v-75h-75zM0 300v75h75v-75h-75zM100 400v75h75v-75h-75zM200 400v75h75v-75h-75zM200 0v75h75v-75h-75zM300 200v75h75v-75h-75zM400 300v75h75v-75h-75zM400 200v75h75v-75h-75zM100 200v75h75v-75h-75z
M200 200v75h75v-75h-75zM400 100v75h75v-75h-75z" />
    <glyph glyph-name="colon" unicode=":" 
d="M200 0v75h75v-75h-75zM200 300v75h75v-75h-75zM200 100v75h75v-75h-75zM200 400v75h75v-75h-75z" />
    <glyph glyph-name="semicolon" unicode=";" 
d="M200 0v75h75v-75h-75zM200 100v75h75v-75h-75zM100 -100v75h75v-75h-75zM200 400v75h75v-75h-75zM200 300v75h75v-75h-75z" />
    <glyph glyph-name="less" unicode="&#x3c;" 
d="M300 0v75h75v-75h-75zM200 100v75h75v-75h-75zM100 200v75h75v-75h-75zM300 400v75h75v-75h-75zM200 300v75h75v-75h-75z" />
    <glyph glyph-name="equal" unicode="=" 
d="M100 300v75h75v-75h-75zM200 300v75h75v-75h-75zM300 300v75h75v-75h-75zM400 300v75h75v-75h-75zM300 100v75h75v-75h-75zM0 300v75h75v-75h-75zM100 100v75h75v-75h-75zM200 100v75h75v-75h-75zM0 100v75h75v-75h-75zM400 100v75h75v-75h-75z" />
    <glyph glyph-name="greater" unicode="&#x3e;" 
d="M200 0v75h75v-75h-75zM300 100v75h75v-75h-75zM400 200v75h75v-75h-75zM200 400v75h75v-75h-75zM300 300v75h75v-75h-75z" />
    <glyph glyph-name="question" unicode="?" 
d="M200 0v75h75v-75h-75zM100 400v75h75v-75h-75zM400 300v75h75v-75h-75zM0 300v75h75v-75h-75zM200 200v75h75v-75h-75zM200 400v75h75v-75h-75zM300 200v75h75v-75h-75zM300 400v75h75v-75h-75z" />
    <glyph glyph-name="at" unicode="@" 
d="M100 -100v75h75v-75h-75zM400 200v75h75v-75h-75zM200 -100v75h75v-75h-75zM0 200v75h75v-75h-75zM300 100v75h75v-75h-75zM0 300v75h75v-75h-75zM300 -100v75h75v-75h-75zM400 400v75h75v-75h-75zM200 500v75h75v-75h-75zM300 500v75h75v-75h-75zM100 200v75h75v-75h-75
zM400 -100v75h75v-75h-75zM200 100v75h75v-75h-75zM100 500v75h75v-75h-75zM400 300v75h75v-75h-75zM0 100v75h75v-75h-75zM400 100v75h75v-75h-75zM0 400v75h75v-75h-75zM300 200v75h75v-75h-75zM200 300v75h75v-75h-75zM0 0v75h75v-75h-75zM300 300v75h75v-75h-75z
M100 100v75h75v-75h-75z" />
    <glyph glyph-name="braceleft" unicode="{" 
d="M300 -100v75h75v-75h-75zM200 0v75h75v-75h-75zM200 400v75h75v-75h-75zM200 300v75h75v-75h-75zM200 100v75h75v-75h-75zM300 500v75h75v-75h-75zM100 200v75h75v-75h-75z" />
    <glyph glyph-name="bar" unicode="|" 
d="M200 -100v75h75v-75h-75zM200 400v75h75v-75h-75zM200 0v75h75v-75h-75zM200 300v75h75v-75h-75zM200 100v75h75v-75h-75zM200 500v75h75v-75h-75zM200 200v75h75v-75h-75z" />
    <glyph glyph-name="braceright" unicode="}" 
d="M100 -100v75h75v-75h-75zM200 0v75h75v-75h-75zM200 400v75h75v-75h-75zM200 300v75h75v-75h-75zM200 100v75h75v-75h-75zM100 500v75h75v-75h-75zM300 200v75h75v-75h-75z" />
    <glyph glyph-name="asciitilde" unicode="~" 
d="M300 200v75h75v-75h-75zM0 300v75h75v-75h-75zM200 300v75h75v-75h-75zM100 400v75h75v-75h-75zM400 300v75h75v-75h-75z" />
    <glyph glyph-name="Euro" unicode="&#x20ac;" 
d="M200 0v75h75v-75h-75zM400 0v75h75v-75h-75zM100 200v75h75v-75h-75zM200 400v75h75v-75h-75zM200 200v75h75v-75h-75zM100 100v75h75v-75h-75zM400 400v75h75v-75h-75zM0 200v75h75v-75h-75zM300 0v75h75v-75h-75zM300 200v75h75v-75h-75zM300 400v75h75v-75h-75z
M100 300v75h75v-75h-75z" />
    <glyph glyph-name="quotesinglbase" unicode="&#x201a;" 
d="M300 0v75h75v-75h-75zM200 -100v75h75v-75h-75zM300 100v75h75v-75h-75z" />
    <glyph glyph-name="florin" unicode="&#x192;" 
d="M200 0v75h75v-75h-75zM300 200v75h75v-75h-75zM0 -200v75h75v-75h-75zM400 200v75h75v-75h-75zM300 400v75h75v-75h-75zM200 300v75h75v-75h-75zM200 100v75h75v-75h-75zM200 200v75h75v-75h-75zM100 200v75h75v-75h-75zM400 400v75h75v-75h-75zM100 -200v75h75v-75h-75z
M200 -100v75h75v-75h-75z" />
    <glyph glyph-name="quotedblbase" unicode="&#x201e;" 
d="M100 -100v75h75v-75h-75zM200 0v75h75v-75h-75zM200 100v75h75v-75h-75zM400 0v75h75v-75h-75zM400 100v75h75v-75h-75zM300 -100v75h75v-75h-75z" />
    <glyph glyph-name="ellipsis" unicode="&#x2026;" 
d="M0 0v75h75v-75h-75zM200 100v75h75v-75h-75zM400 0v75h75v-75h-75zM0 100v75h75v-75h-75zM400 100v75h75v-75h-75zM200 0v75h75v-75h-75z" />
    <glyph glyph-name="dagger" unicode="&#x2020;" 
d="M200 0v75h75v-75h-75zM200 100v75h75v-75h-75zM300 300v75h75v-75h-75zM200 300v75h75v-75h-75zM200 200v75h75v-75h-75zM200 400v75h75v-75h-75zM100 300v75h75v-75h-75z" />
    <glyph glyph-name="daggerdbl" unicode="&#x2021;" 
d="M200 0v75h75v-75h-75zM100 300v75h75v-75h-75zM200 200v75h75v-75h-75zM200 300v75h75v-75h-75zM200 100v75h75v-75h-75zM300 300v75h75v-75h-75zM300 100v75h75v-75h-75zM200 400v75h75v-75h-75zM100 100v75h75v-75h-75z" />
    <glyph glyph-name="perthousand" unicode="&#x2030;" 
d="M200 0v75h75v-75h-75zM0 0v75h75v-75h-75zM0 400v75h75v-75h-75zM100 200v75h75v-75h-75zM200 100v75h75v-75h-75zM400 0v75h75v-75h-75zM200 300v75h75v-75h-75zM0 300v75h75v-75h-75zM200 400v75h75v-75h-75zM400 100v75h75v-75h-75zM100 100v75h75v-75h-75z" />
    <glyph glyph-name="guilsinglleft" unicode="&#x2039;" 
d="M300 0v75h75v-75h-75zM200 100v75h75v-75h-75zM100 200v75h75v-75h-75zM300 400v75h75v-75h-75zM200 300v75h75v-75h-75z" />
    <glyph glyph-name="quoteleft" unicode="&#x2018;" 
d="M200 300v75h75v-75h-75zM200 400v75h75v-75h-75zM300 500v75h75v-75h-75z" />
    <glyph glyph-name="quoteright" unicode="&#x2019;" 
d="M200 300v75h75v-75h-75zM300 500v75h75v-75h-75zM300 400v75h75v-75h-75z" />
    <glyph glyph-name="quotedblleft" unicode="&#x201c;" 
d="M100 300v75h75v-75h-75zM100 400v75h75v-75h-75zM300 300v75h75v-75h-75zM300 400v75h75v-75h-75zM400 500v75h75v-75h-75zM200 500v75h75v-75h-75z" />
    <glyph glyph-name="quotedblright" unicode="&#x201d;" 
d="M100 300v75h75v-75h-75zM200 400v75h75v-75h-75zM200 500v75h75v-75h-75zM400 400v75h75v-75h-75zM400 500v75h75v-75h-75zM300 300v75h75v-75h-75z" />
    <glyph glyph-name="bullet" unicode="&#x2022;" 
d="M0 200v75h75v-75h-75zM100 400v75h75v-75h-75zM100 300v75h75v-75h-75zM0 400v75h75v-75h-75zM200 200v75h75v-75h-75zM200 300v75h75v-75h-75zM100 200v75h75v-75h-75zM0 300v75h75v-75h-75zM200 400v75h75v-75h-75z" />
    <glyph glyph-name="endash" unicode="&#x2013;" 
d="M100 200v75h75v-75h-75zM300 200v75h75v-75h-75zM200 200v75h75v-75h-75z" />
    <glyph glyph-name="emdash" unicode="&#x2014;" 
d="M0 200v75h75v-75h-75zM100 200v75h75v-75h-75zM200 200v75h75v-75h-75zM400 200v75h75v-75h-75zM300 200v75h75v-75h-75z" />
    <glyph glyph-name="trademark" unicode="&#x2122;" 
d="M100 300v75h75v-75h-75zM100 500v75h75v-75h-75zM300 400v75h75v-75h-75zM500 400v75h75v-75h-75zM200 500v75h75v-75h-75zM300 500v75h75v-75h-75zM100 400v75h75v-75h-75zM0 500v75h75v-75h-75zM500 300v75h75v-75h-75zM300 300v75h75v-75h-75zM500 500v75h75v-75h-75z
M400 400v75h75v-75h-75z" />
    <glyph glyph-name="guilsinglright" unicode="&#x203a;" 
d="M200 0v75h75v-75h-75zM300 100v75h75v-75h-75zM400 200v75h75v-75h-75zM200 400v75h75v-75h-75zM300 300v75h75v-75h-75z" />
    <glyph glyph-name="sterling" unicode="&#xa3;" 
d="M200 0v75h75v-75h-75zM100 300v75h75v-75h-75zM100 200v75h75v-75h-75zM200 400v75h75v-75h-75zM100 0v75h75v-75h-75zM300 0v75h75v-75h-75zM300 400v75h75v-75h-75zM400 0v75h75v-75h-75zM0 0v75h75v-75h-75zM100 100v75h75v-75h-75zM200 200v75h75v-75h-75zM0 200v75
h75v-75h-75zM300 200v75h75v-75h-75z" />
    <glyph glyph-name="currency" unicode="&#xa4;" 
d="M0 0v75h75v-75h-75zM200 100v75h75v-75h-75zM300 300v75h75v-75h-75zM0 400v75h75v-75h-75zM100 100v75h75v-75h-75zM100 200v75h75v-75h-75zM100 300v75h75v-75h-75zM300 100v75h75v-75h-75zM400 0v75h75v-75h-75zM300 200v75h75v-75h-75zM400 400v75h75v-75h-75z
M200 300v75h75v-75h-75z" />
    <glyph glyph-name="yen" unicode="&#xa5;" 
d="M200 100v75h75v-75h-75zM200 0v75h75v-75h-75zM300 300v75h75v-75h-75zM100 100v75h75v-75h-75zM0 400v75h75v-75h-75zM200 200v75h75v-75h-75zM400 400v75h75v-75h-75zM100 300v75h75v-75h-75zM0 100v75h75v-75h-75zM400 100v75h75v-75h-75zM300 100v75h75v-75h-75z" />
    <glyph glyph-name="brokenbar" unicode="&#xa6;" 
d="M200 0v75h75v-75h-75zM200 300v75h75v-75h-75zM200 100v75h75v-75h-75zM200 400v75h75v-75h-75z" />
    <glyph glyph-name="section" unicode="&#xa7;" 
d="M200 0v75h75v-75h-75zM200 400v75h75v-75h-75zM300 600v75h75v-75h-75zM300 400v75h75v-75h-75zM300 0v75h75v-75h-75zM100 300v75h75v-75h-75zM200 200v75h75v-75h-75zM300 200v75h75v-75h-75zM200 600v75h75v-75h-75zM400 100v75h75v-75h-75zM400 300v75h75v-75h-75z
M100 500v75h75v-75h-75zM400 600v75h75v-75h-75zM100 0v75h75v-75h-75z" />
    <glyph glyph-name="dieresis" unicode="&#xa8;" 
d="M0 600v75h75v-75h-75zM400 600v75h75v-75h-75zM0 700v75h75v-75h-75zM400 700v75h75v-75h-75z" />
    <glyph glyph-name="copyright" unicode="&#xa9;" 
d="M100 0v75h75v-75h-75zM200 400v75h75v-75h-75zM400 100v75h75v-75h-75zM400 200v75h75v-75h-75zM200 300v75h75v-75h-75zM200 0v75h75v-75h-75zM0 300v75h75v-75h-75zM100 400v75h75v-75h-75zM300 0v75h75v-75h-75zM200 100v75h75v-75h-75zM100 200v75h75v-75h-75z
M400 300v75h75v-75h-75zM0 200v75h75v-75h-75zM300 400v75h75v-75h-75zM0 100v75h75v-75h-75z" />
    <glyph glyph-name="guillemotleft" unicode="&#xab;" 
d="M400 0v75h75v-75h-75zM100 300v75h75v-75h-75zM200 200v75h75v-75h-75zM0 200v75h75v-75h-75zM400 400v75h75v-75h-75zM200 0v75h75v-75h-75zM100 100v75h75v-75h-75zM300 300v75h75v-75h-75zM300 100v75h75v-75h-75zM200 400v75h75v-75h-75z" />
    <glyph glyph-name="logicalnot" unicode="&#xac;" 
d="M400 100v75h75v-75h-75zM0 200v75h75v-75h-75zM400 200v75h75v-75h-75zM300 200v75h75v-75h-75zM100 200v75h75v-75h-75zM400 0v75h75v-75h-75zM200 200v75h75v-75h-75z" />
    <glyph glyph-name="uni00AD" unicode="&#xad;" 
d="M100 200v75h75v-75h-75zM300 200v75h75v-75h-75zM200 200v75h75v-75h-75z" />
    <glyph glyph-name="registered" unicode="&#xae;" 
d="M100 100v75h75v-75h-75zM200 500v75h75v-75h-75zM400 200v75h75v-75h-75zM0 300v75h75v-75h-75zM200 300v75h75v-75h-75zM300 500v75h75v-75h-75zM100 500v75h75v-75h-75zM400 400v75h75v-75h-75zM0 400v75h75v-75h-75zM300 200v75h75v-75h-75zM300 100v75h75v-75h-75z
M300 400v75h75v-75h-75zM200 100v75h75v-75h-75zM400 300v75h75v-75h-75zM200 400v75h75v-75h-75zM0 200v75h75v-75h-75z" />
    <glyph glyph-name="degree" unicode="&#xb0;" 
d="M100 300v75h75v-75h-75zM200 400v75h75v-75h-75zM100 500v75h75v-75h-75zM0 400v75h75v-75h-75z" />
    <glyph glyph-name="plusminus" unicode="&#xb1;" 
d="M0 0v75h75v-75h-75zM300 0v75h75v-75h-75zM300 300v75h75v-75h-75zM400 300v75h75v-75h-75zM200 0v75h75v-75h-75zM200 200v75h75v-75h-75zM100 0v75h75v-75h-75zM400 0v75h75v-75h-75zM100 300v75h75v-75h-75zM0 300v75h75v-75h-75zM200 400v75h75v-75h-75zM200 300v75
h75v-75h-75z" />
    <glyph glyph-name="twosuperior" unicode="&#xb2;" 
d="M0 200v75h75v-75h-75zM100 400v75h75v-75h-75zM0 300v75h75v-75h-75zM0 500v75h75v-75h-75zM100 200v75h75v-75h-75z" />
    <glyph glyph-name="threesuperior" unicode="&#xb3;" 
d="M0 200v75h75v-75h-75zM0 500v75h75v-75h-75zM100 400v75h75v-75h-75zM100 200v75h75v-75h-75zM100 300v75h75v-75h-75z" />
    <glyph glyph-name="mu" unicode="&#xb5;" 
d="M0 0v75h75v-75h-75zM0 400v75h75v-75h-75zM200 200v75h75v-75h-75zM400 300v75h75v-75h-75zM200 100v75h75v-75h-75zM100 300v75h75v-75h-75zM300 300v75h75v-75h-75zM0 200v75h75v-75h-75zM0 300v75h75v-75h-75zM400 100v75h75v-75h-75zM0 100v75h75v-75h-75zM400 200
v75h75v-75h-75zM400 400v75h75v-75h-75zM400 0v75h75v-75h-75z" />
    <glyph glyph-name="paragraph" unicode="&#xb6;" 
d="M400 0v75h75v-75h-75zM400 100v75h75v-75h-75zM400 300v75h75v-75h-75zM0 300v75h75v-75h-75zM100 300v75h75v-75h-75zM200 100v75h75v-75h-75zM200 200v75h75v-75h-75zM100 200v75h75v-75h-75zM400 400v75h75v-75h-75zM200 300v75h75v-75h-75zM200 400v75h75v-75h-75z
M100 400v75h75v-75h-75zM200 0v75h75v-75h-75zM400 200v75h75v-75h-75z" />
    <glyph glyph-name="periodcentered" unicode="&#xb7;" 
d="M100 200v75h75v-75h-75zM100 300v75h75v-75h-75z" />
    <glyph glyph-name="guillemotright" unicode="&#xbb;" 
d="M0 0v75h75v-75h-75zM100 100v75h75v-75h-75zM0 400v75h75v-75h-75zM400 200v75h75v-75h-75zM300 100v75h75v-75h-75zM200 0v75h75v-75h-75zM100 300v75h75v-75h-75zM200 200v75h75v-75h-75zM200 400v75h75v-75h-75zM300 300v75h75v-75h-75z" />
    <glyph glyph-name="onehalf" unicode="&#xbd;" 
d="M400 0v75h75v-75h-75zM0 400v75h75v-75h-75zM300 300v75h75v-75h-75zM200 100v75h75v-75h-75zM400 100v75h75v-75h-75zM300 400v75h75v-75h-75zM100 200v75h75v-75h-75zM100 300v75h75v-75h-75zM500 200v75h75v-75h-75zM100 0v75h75v-75h-75zM200 200v75h75v-75h-75z
M400 300v75h75v-75h-75zM500 0v75h75v-75h-75zM100 400v75h75v-75h-75z" />
    <glyph glyph-name="a" unicode="a" 
d="M100 0v75h75v-75h-75zM400 300v75h75v-75h-75zM100 200v75h75v-75h-75zM0 100v75h75v-75h-75zM400 100v75h75v-75h-75zM400 200v75h75v-75h-75zM200 0v75h75v-75h-75zM200 400v75h75v-75h-75zM300 200v75h75v-75h-75zM100 400v75h75v-75h-75zM300 0v75h75v-75h-75z
M200 200v75h75v-75h-75zM300 400v75h75v-75h-75zM400 0v75h75v-75h-75z" />
    <glyph glyph-name="b" unicode="b" 
d="M0 0v75h75v-75h-75zM400 100v75h75v-75h-75zM100 0v75h75v-75h-75zM300 0v75h75v-75h-75zM100 200v75h75v-75h-75zM0 200v75h75v-75h-75zM300 200v75h75v-75h-75zM400 300v75h75v-75h-75zM0 400v75h75v-75h-75zM100 400v75h75v-75h-75zM200 0v75h75v-75h-75zM0 300v75h75
v-75h-75zM0 100v75h75v-75h-75zM200 200v75h75v-75h-75zM300 400v75h75v-75h-75zM200 400v75h75v-75h-75z" />
    <glyph glyph-name="c" unicode="c" 
d="M100 0v75h75v-75h-75zM400 100v75h75v-75h-75zM300 0v75h75v-75h-75zM100 400v75h75v-75h-75zM0 100v75h75v-75h-75zM0 300v75h75v-75h-75zM0 200v75h75v-75h-75zM200 400v75h75v-75h-75zM200 0v75h75v-75h-75zM300 400v75h75v-75h-75zM400 300v75h75v-75h-75z" />
    <glyph glyph-name="e" unicode="e" 
d="M100 0v75h75v-75h-75zM300 0v75h75v-75h-75zM0 300v75h75v-75h-75zM300 200v75h75v-75h-75zM400 200v75h75v-75h-75zM400 0v75h75v-75h-75zM0 200v75h75v-75h-75zM0 100v75h75v-75h-75zM400 300v75h75v-75h-75zM100 400v75h75v-75h-75zM200 200v75h75v-75h-75zM200 0v75
h75v-75h-75zM100 200v75h75v-75h-75zM300 400v75h75v-75h-75zM200 400v75h75v-75h-75z" />
    <glyph glyph-name="d" unicode="d" 
d="M0 0v75h75v-75h-75zM400 100v75h75v-75h-75zM400 300v75h75v-75h-75zM100 400v75h75v-75h-75zM200 0v75h75v-75h-75zM0 100v75h75v-75h-75zM0 300v75h75v-75h-75zM100 0v75h75v-75h-75zM0 400v75h75v-75h-75zM200 400v75h75v-75h-75zM0 200v75h75v-75h-75zM400 200v75h75
v-75h-75zM300 400v75h75v-75h-75zM300 0v75h75v-75h-75z" />
    <glyph glyph-name="f" unicode="f" 
d="M0 0v75h75v-75h-75zM200 400v75h75v-75h-75zM0 200v75h75v-75h-75zM300 400v75h75v-75h-75zM0 300v75h75v-75h-75zM100 400v75h75v-75h-75zM0 100v75h75v-75h-75zM200 200v75h75v-75h-75zM300 200v75h75v-75h-75zM0 400v75h75v-75h-75zM400 400v75h75v-75h-75zM100 200
v75h75v-75h-75z" />
    <glyph glyph-name="h" unicode="h" 
d="M0 0v75h75v-75h-75zM400 300v75h75v-75h-75zM0 100v75h75v-75h-75zM0 400v75h75v-75h-75zM100 200v75h75v-75h-75zM400 200v75h75v-75h-75zM400 400v75h75v-75h-75zM0 300v75h75v-75h-75zM400 0v75h75v-75h-75zM200 200v75h75v-75h-75zM0 200v75h75v-75h-75zM300 200v75
h75v-75h-75zM400 100v75h75v-75h-75z" />
    <glyph glyph-name="i" unicode="i" 
d="M0 0v75h75v-75h-75zM200 600v75h75v-75h-75zM200 0v75h75v-75h-75zM100 400v75h75v-75h-75zM200 200v75h75v-75h-75zM200 400v75h75v-75h-75zM0 400v75h75v-75h-75zM400 0v75h75v-75h-75zM200 100v75h75v-75h-75zM200 300v75h75v-75h-75zM100 0v75h75v-75h-75zM300 0v75
h75v-75h-75z" />
    <glyph glyph-name="j" unicode="j" 
d="M100 0v75h75v-75h-75zM300 100v75h75v-75h-75zM300 200v75h75v-75h-75zM0 400v75h75v-75h-75zM300 400v75h75v-75h-75zM100 400v75h75v-75h-75zM300 300v75h75v-75h-75zM200 400v75h75v-75h-75zM200 0v75h75v-75h-75zM0 100v75h75v-75h-75z" />
    <glyph glyph-name="k" unicode="k" 
d="M0 0v75h75v-75h-75zM0 300v75h75v-75h-75zM400 0v75h75v-75h-75zM100 200v75h75v-75h-75zM400 100v75h75v-75h-75zM0 200v75h75v-75h-75zM0 100v75h75v-75h-75zM200 200v75h75v-75h-75zM0 400v75h75v-75h-75zM400 300v75h75v-75h-75zM300 200v75h75v-75h-75zM400 400v75
h75v-75h-75z" />
    <glyph glyph-name="l" unicode="l" 
d="M0 0v75h75v-75h-75zM0 300v75h75v-75h-75zM400 0v75h75v-75h-75zM0 200v75h75v-75h-75zM200 0v75h75v-75h-75zM0 100v75h75v-75h-75zM100 0v75h75v-75h-75zM0 400v75h75v-75h-75zM300 0v75h75v-75h-75z" />
    <glyph glyph-name="m" unicode="m" 
d="M0 0v75h75v-75h-75zM400 200v75h75v-75h-75zM0 200v75h75v-75h-75zM400 0v75h75v-75h-75zM200 100v75h75v-75h-75zM400 300v75h75v-75h-75zM200 400v75h75v-75h-75zM100 300v75h75v-75h-75zM200 300v75h75v-75h-75zM0 100v75h75v-75h-75zM0 400v75h75v-75h-75zM300 300
v75h75v-75h-75zM200 200v75h75v-75h-75zM200 0v75h75v-75h-75zM0 300v75h75v-75h-75zM400 100v75h75v-75h-75zM400 400v75h75v-75h-75z" />
    <glyph glyph-name="n" unicode="n" 
d="M0 0v75h75v-75h-75zM400 200v75h75v-75h-75zM400 100v75h75v-75h-75zM0 300v75h75v-75h-75zM300 400v75h75v-75h-75zM0 100v75h75v-75h-75zM200 400v75h75v-75h-75zM0 200v75h75v-75h-75zM0 400v75h75v-75h-75zM100 300v75h75v-75h-75zM400 0v75h75v-75h-75zM400 300v75
h75v-75h-75z" />
    <glyph glyph-name="o" unicode="o" 
d="M100 0v75h75v-75h-75zM200 0v75h75v-75h-75zM400 100v75h75v-75h-75zM0 100v75h75v-75h-75zM300 0v75h75v-75h-75zM300 400v75h75v-75h-75zM0 300v75h75v-75h-75zM200 400v75h75v-75h-75zM0 200v75h75v-75h-75zM400 200v75h75v-75h-75zM100 400v75h75v-75h-75zM400 300
v75h75v-75h-75z" />
    <glyph glyph-name="p" unicode="p" 
d="M0 0v75h75v-75h-75zM100 200v75h75v-75h-75zM300 200v75h75v-75h-75zM200 400v75h75v-75h-75zM0 300v75h75v-75h-75zM0 200v75h75v-75h-75zM100 400v75h75v-75h-75zM200 200v75h75v-75h-75zM0 100v75h75v-75h-75zM400 300v75h75v-75h-75zM300 400v75h75v-75h-75zM0 400
v75h75v-75h-75z" />
    <glyph glyph-name="q" unicode="q" 
d="M100 0v75h75v-75h-75zM400 300v75h75v-75h-75zM200 0v75h75v-75h-75zM0 300v75h75v-75h-75zM100 400v75h75v-75h-75zM0 100v75h75v-75h-75zM400 100v75h75v-75h-75zM200 100v75h75v-75h-75zM300 0v75h75v-75h-75zM0 200v75h75v-75h-75zM300 400v75h75v-75h-75zM200 400
v75h75v-75h-75zM400 200v75h75v-75h-75zM300 -200v75h75v-75h-75zM200 -100v75h75v-75h-75z" />
    <glyph glyph-name="r" unicode="r" 
d="M100 0v75h75v-75h-75zM0 400v75h75v-75h-75zM100 200v75h75v-75h-75zM100 300v75h75v-75h-75zM300 400v75h75v-75h-75zM0 0v75h75v-75h-75zM100 400v75h75v-75h-75zM200 0v75h75v-75h-75zM200 300v75h75v-75h-75zM400 400v75h75v-75h-75zM100 100v75h75v-75h-75zM300 0
v75h75v-75h-75z" />
    <glyph glyph-name="s" unicode="s" 
d="M0 0v75h75v-75h-75zM300 0v75h75v-75h-75zM300 200v75h75v-75h-75zM0 300v75h75v-75h-75zM100 400v75h75v-75h-75zM200 400v75h75v-75h-75zM100 0v75h75v-75h-75zM200 200v75h75v-75h-75zM200 0v75h75v-75h-75zM300 400v75h75v-75h-75zM400 100v75h75v-75h-75zM400 400
v75h75v-75h-75zM100 200v75h75v-75h-75z" />
    <glyph glyph-name="t" unicode="t" 
d="M200 0v75h75v-75h-75zM100 400v75h75v-75h-75zM0 400v75h75v-75h-75zM200 400v75h75v-75h-75zM200 200v75h75v-75h-75zM300 400v75h75v-75h-75zM200 300v75h75v-75h-75zM400 400v75h75v-75h-75zM200 100v75h75v-75h-75z" />
    <glyph glyph-name="u" unicode="u" 
d="M100 0v75h75v-75h-75zM0 400v75h75v-75h-75zM400 0v75h75v-75h-75zM200 0v75h75v-75h-75zM0 200v75h75v-75h-75zM0 300v75h75v-75h-75zM400 300v75h75v-75h-75zM300 100v75h75v-75h-75zM400 100v75h75v-75h-75zM400 200v75h75v-75h-75zM400 400v75h75v-75h-75zM0 100v75
h75v-75h-75z" />
    <glyph glyph-name="v" unicode="v" 
d="M200 0v75h75v-75h-75zM0 300v75h75v-75h-75zM300 200v75h75v-75h-75zM400 300v75h75v-75h-75zM300 100v75h75v-75h-75zM100 100v75h75v-75h-75zM100 200v75h75v-75h-75zM0 400v75h75v-75h-75zM400 400v75h75v-75h-75z" />
    <glyph glyph-name="w" unicode="w" 
d="M100 0v75h75v-75h-75zM300 100v75h75v-75h-75zM200 300v75h75v-75h-75zM0 400v75h75v-75h-75zM400 200v75h75v-75h-75zM100 100v75h75v-75h-75zM200 200v75h75v-75h-75zM0 200v75h75v-75h-75zM400 300v75h75v-75h-75zM0 300v75h75v-75h-75zM300 0v75h75v-75h-75zM400 400
v75h75v-75h-75z" />
    <glyph glyph-name="x" unicode="x" 
d="M0 0v75h75v-75h-75zM300 200v75h75v-75h-75zM0 100v75h75v-75h-75zM100 200v75h75v-75h-75zM400 0v75h75v-75h-75zM0 400v75h75v-75h-75zM200 200v75h75v-75h-75zM400 100v75h75v-75h-75zM0 300v75h75v-75h-75zM400 300v75h75v-75h-75zM400 400v75h75v-75h-75z" />
    <glyph glyph-name="y" unicode="y" 
d="M200 0v75h75v-75h-75zM100 200v75h75v-75h-75zM0 300v75h75v-75h-75zM300 200v75h75v-75h-75zM400 300v75h75v-75h-75zM0 400v75h75v-75h-75zM200 100v75h75v-75h-75zM400 400v75h75v-75h-75z" />
    <glyph glyph-name="z" unicode="z" 
d="M0 0v75h75v-75h-75zM300 0v75h75v-75h-75zM300 300v75h75v-75h-75zM0 400v75h75v-75h-75zM100 400v75h75v-75h-75zM200 400v75h75v-75h-75zM100 0v75h75v-75h-75zM200 200v75h75v-75h-75zM200 0v75h75v-75h-75zM300 400v75h75v-75h-75zM400 0v75h75v-75h-75zM400 400v75
h75v-75h-75zM100 100v75h75v-75h-75z" />
    <glyph glyph-name="bracketleft" unicode="[" 
d="M200 -100v75h75v-75h-75zM200 0v75h75v-75h-75zM200 200v75h75v-75h-75zM200 400v75h75v-75h-75zM300 -100v75h75v-75h-75zM200 300v75h75v-75h-75zM200 500v75h75v-75h-75zM300 500v75h75v-75h-75zM200 100v75h75v-75h-75z" />
    <glyph glyph-name="g" unicode="g" 
d="M100 0v75h75v-75h-75zM0 300v75h75v-75h-75zM0 200v75h75v-75h-75zM0 100v75h75v-75h-75zM400 100v75h75v-75h-75zM400 400v75h75v-75h-75zM100 400v75h75v-75h-75zM400 0v75h75v-75h-75zM200 0v75h75v-75h-75zM200 400v75h75v-75h-75zM300 0v75h75v-75h-75zM400 200v75
h75v-75h-75zM300 200v75h75v-75h-75zM300 400v75h75v-75h-75z" />
    <glyph glyph-name="space" unicode=" " 
 />
    <glyph glyph-name="Alphatonos" unicode="&#x386;" 
d="M200 0v75h75v-75h-75zM400 100v75h75v-75h-75zM0 300v75h75v-75h-75zM300 400v75h75v-75h-75zM0 200v75h75v-75h-75zM300 200v75h75v-75h-75zM400 200v75h75v-75h-75zM200 300v75h75v-75h-75zM200 100v75h75v-75h-75zM400 0v75h75v-75h-75zM200 200v75h75v-75h-75zM0 400
v75h75v-75h-75zM400 300v75h75v-75h-75z" />
    <glyph glyph-name="adieresis" unicode="&#xe4;" 
d="M100 0v75h75v-75h-75zM400 300v75h75v-75h-75zM100 200v75h75v-75h-75zM0 100v75h75v-75h-75zM400 100v75h75v-75h-75zM400 200v75h75v-75h-75zM200 0v75h75v-75h-75zM200 400v75h75v-75h-75zM300 200v75h75v-75h-75zM100 400v75h75v-75h-75zM300 0v75h75v-75h-75z
M200 200v75h75v-75h-75zM300 400v75h75v-75h-75zM400 0v75h75v-75h-75zM0 600v75h75v-75h-75zM400 600v75h75v-75h-75zM0 700v75h75v-75h-75zM400 700v75h75v-75h-75z" />
    <glyph glyph-name="oe" unicode="&#x153;" 
d="M100 0v75h75v-75h-75zM200 100v75h75v-75h-75zM100 400v75h75v-75h-75zM200 200v75h75v-75h-75zM0 100v75h75v-75h-75zM400 0v75h75v-75h-75zM300 200v75h75v-75h-75zM0 300v75h75v-75h-75zM300 0v75h75v-75h-75zM400 200v75h75v-75h-75zM400 300v75h75v-75h-75zM200 300
v75h75v-75h-75zM0 200v75h75v-75h-75zM300 400v75h75v-75h-75z" />
    <glyph glyph-name="odieresis" unicode="&#xf6;" 
d="M100 0v75h75v-75h-75zM200 0v75h75v-75h-75zM400 100v75h75v-75h-75zM0 100v75h75v-75h-75zM300 0v75h75v-75h-75zM300 400v75h75v-75h-75zM0 300v75h75v-75h-75zM200 400v75h75v-75h-75zM0 200v75h75v-75h-75zM400 200v75h75v-75h-75zM100 400v75h75v-75h-75zM400 300
v75h75v-75h-75zM0 600v75h75v-75h-75zM400 600v75h75v-75h-75zM0 700v75h75v-75h-75zM400 700v75h75v-75h-75z" />
    <glyph glyph-name="agrave" unicode="&#xe0;" 
d="M100 0v75h75v-75h-75zM400 300v75h75v-75h-75zM100 200v75h75v-75h-75zM0 100v75h75v-75h-75zM400 100v75h75v-75h-75zM400 200v75h75v-75h-75zM200 0v75h75v-75h-75zM200 400v75h75v-75h-75zM300 200v75h75v-75h-75zM100 400v75h75v-75h-75zM300 0v75h75v-75h-75z
M200 200v75h75v-75h-75zM300 400v75h75v-75h-75zM400 0v75h75v-75h-75zM300 600v75h75v-75h-75zM200 600v75h75v-75h-75zM100 700v75h75v-75h-75z" />
    <glyph glyph-name="Odieresis" unicode="&#xd6;" 
d="M0 600v75h75v-75h-75zM400 600v75h75v-75h-75zM0 700v75h75v-75h-75zM400 700v75h75v-75h-75zM100 0v75h75v-75h-75zM0 300v75h75v-75h-75zM400 100v75h75v-75h-75zM0 100v75h75v-75h-75zM300 0v75h75v-75h-75zM200 400v75h75v-75h-75zM200 0v75h75v-75h-75zM100 400v75
h75v-75h-75zM0 200v75h75v-75h-75zM400 200v75h75v-75h-75zM400 300v75h75v-75h-75zM300 400v75h75v-75h-75z" />
    <glyph glyph-name="Adieresis" unicode="&#xc4;" 
d="M0 0v75h75v-75h-75zM0 300v75h75v-75h-75zM200 400v75h75v-75h-75zM0 200v75h75v-75h-75zM400 100v75h75v-75h-75zM100 200v75h75v-75h-75zM200 200v75h75v-75h-75zM300 400v75h75v-75h-75zM400 200v75h75v-75h-75zM0 100v75h75v-75h-75zM400 0v75h75v-75h-75zM400 300
v75h75v-75h-75zM300 200v75h75v-75h-75zM100 400v75h75v-75h-75zM0 600v75h75v-75h-75zM400 600v75h75v-75h-75zM0 700v75h75v-75h-75zM400 700v75h75v-75h-75z" />
    <glyph glyph-name="idieresis" unicode="&#xef;" 
d="M0 0v75h75v-75h-75zM100 0v75h75v-75h-75zM0 600v75h75v-75h-75zM200 400v75h75v-75h-75zM400 0v75h75v-75h-75zM100 400v75h75v-75h-75zM200 300v75h75v-75h-75zM0 700v75h75v-75h-75zM300 0v75h75v-75h-75zM0 400v75h75v-75h-75zM200 100v75h75v-75h-75zM200 0v75h75
v-75h-75zM200 200v75h75v-75h-75zM400 600v75h75v-75h-75zM400 700v75h75v-75h-75z" />
    <glyph glyph-name="edieresis" unicode="&#xeb;" 
d="M100 0v75h75v-75h-75zM300 0v75h75v-75h-75zM0 300v75h75v-75h-75zM300 200v75h75v-75h-75zM400 200v75h75v-75h-75zM400 0v75h75v-75h-75zM0 200v75h75v-75h-75zM0 100v75h75v-75h-75zM400 300v75h75v-75h-75zM100 400v75h75v-75h-75zM200 200v75h75v-75h-75zM200 0v75
h75v-75h-75zM100 200v75h75v-75h-75zM300 400v75h75v-75h-75zM200 400v75h75v-75h-75zM0 600v75h75v-75h-75zM400 600v75h75v-75h-75zM0 700v75h75v-75h-75zM400 700v75h75v-75h-75z" />
    <glyph glyph-name="egrave" unicode="&#xe8;" 
d="M100 0v75h75v-75h-75zM300 0v75h75v-75h-75zM0 300v75h75v-75h-75zM300 200v75h75v-75h-75zM400 200v75h75v-75h-75zM400 0v75h75v-75h-75zM0 200v75h75v-75h-75zM0 100v75h75v-75h-75zM400 300v75h75v-75h-75zM100 400v75h75v-75h-75zM200 200v75h75v-75h-75zM200 0v75
h75v-75h-75zM100 200v75h75v-75h-75zM300 400v75h75v-75h-75zM200 400v75h75v-75h-75zM300 600v75h75v-75h-75zM200 600v75h75v-75h-75zM100 700v75h75v-75h-75z" />
    <glyph glyph-name="divide" unicode="&#xf7;" 
d="M200 0v75h75v-75h-75zM0 200v75h75v-75h-75zM300 200v75h75v-75h-75zM100 200v75h75v-75h-75zM200 200v75h75v-75h-75zM400 200v75h75v-75h-75zM200 400v75h75v-75h-75z" />
    <glyph glyph-name="ugrave" unicode="&#xf9;" 
d="M100 0v75h75v-75h-75zM0 400v75h75v-75h-75zM400 0v75h75v-75h-75zM200 0v75h75v-75h-75zM0 200v75h75v-75h-75zM0 300v75h75v-75h-75zM400 300v75h75v-75h-75zM300 100v75h75v-75h-75zM400 100v75h75v-75h-75zM400 200v75h75v-75h-75zM400 400v75h75v-75h-75zM0 100v75
h75v-75h-75zM300 600v75h75v-75h-75zM200 600v75h75v-75h-75zM100 700v75h75v-75h-75z" />
    <glyph glyph-name="udieresis" unicode="&#xfc;" 
d="M100 0v75h75v-75h-75zM0 400v75h75v-75h-75zM400 0v75h75v-75h-75zM200 0v75h75v-75h-75zM0 200v75h75v-75h-75zM0 300v75h75v-75h-75zM400 300v75h75v-75h-75zM300 100v75h75v-75h-75zM400 100v75h75v-75h-75zM400 200v75h75v-75h-75zM400 400v75h75v-75h-75zM0 100v75
h75v-75h-75zM0 600v75h75v-75h-75zM400 600v75h75v-75h-75zM0 700v75h75v-75h-75zM400 700v75h75v-75h-75z" />
    <glyph glyph-name="ccedilla" unicode="&#xe7;" 
d="M100 0v75h75v-75h-75zM400 100v75h75v-75h-75zM300 0v75h75v-75h-75zM100 400v75h75v-75h-75zM0 100v75h75v-75h-75zM0 300v75h75v-75h-75zM0 200v75h75v-75h-75zM200 400v75h75v-75h-75zM200 0v75h75v-75h-75zM300 400v75h75v-75h-75zM400 300v75h75v-75h-75zM200 -100
v75h75v-75h-75zM100 -200v75h75v-75h-75z" />
    <glyph glyph-name="acircumflex" unicode="&#xe2;" 
d="M100 0v75h75v-75h-75zM400 300v75h75v-75h-75zM100 200v75h75v-75h-75zM0 100v75h75v-75h-75zM400 100v75h75v-75h-75zM400 200v75h75v-75h-75zM200 0v75h75v-75h-75zM200 400v75h75v-75h-75zM300 200v75h75v-75h-75zM100 400v75h75v-75h-75zM300 0v75h75v-75h-75z
M200 200v75h75v-75h-75zM300 400v75h75v-75h-75zM400 0v75h75v-75h-75z" />
    <glyph glyph-name="circumflex" unicode="&#x2c6;" 
d="M100 600v75h75v-75h-75zM200 700v75h75v-75h-75zM300 600v75h75v-75h-75z" />
    <glyph glyph-name="acute" unicode="&#xb4;" 
d="M200 600v75h75v-75h-75zM300 700v75h75v-75h-75zM100 600v75h75v-75h-75z" />
    <glyph glyph-name="Eacute" unicode="&#xc9;" 
d="M0 0v75h75v-75h-75zM400 0v75h75v-75h-75zM100 200v75h75v-75h-75zM300 0v75h75v-75h-75zM300 400v75h75v-75h-75zM0 200v75h75v-75h-75zM300 200v75h75v-75h-75zM0 400v75h75v-75h-75zM100 400v75h75v-75h-75zM200 400v75h75v-75h-75zM200 0v75h75v-75h-75zM0 300v75h75
v-75h-75zM0 100v75h75v-75h-75zM200 200v75h75v-75h-75zM400 400v75h75v-75h-75zM100 0v75h75v-75h-75zM200 600v75h75v-75h-75zM300 700v75h75v-75h-75zM100 600v75h75v-75h-75z" />
    <glyph glyph-name="Udieresis" unicode="&#xdc;" 
d="M100 0v75h75v-75h-75zM400 100v75h75v-75h-75zM300 0v75h75v-75h-75zM400 300v75h75v-75h-75zM0 100v75h75v-75h-75zM400 200v75h75v-75h-75zM0 200v75h75v-75h-75zM0 400v75h75v-75h-75zM200 0v75h75v-75h-75zM400 400v75h75v-75h-75zM0 300v75h75v-75h-75zM0 600v75h75
v-75h-75zM400 600v75h75v-75h-75zM0 700v75h75v-75h-75zM400 700v75h75v-75h-75z" />
    <glyph glyph-name="onesuperior" unicode="&#xb9;" 
d="M0 200v75h75v-75h-75zM100 500v75h75v-75h-75zM200 200v75h75v-75h-75zM100 400v75h75v-75h-75zM100 200v75h75v-75h-75zM0 500v75h75v-75h-75zM100 300v75h75v-75h-75z" />
    <glyph glyph-name="eacute" unicode="&#xe9;" 
d="M100 0v75h75v-75h-75zM300 0v75h75v-75h-75zM0 300v75h75v-75h-75zM300 200v75h75v-75h-75zM400 200v75h75v-75h-75zM400 0v75h75v-75h-75zM0 200v75h75v-75h-75zM0 100v75h75v-75h-75zM400 300v75h75v-75h-75zM100 400v75h75v-75h-75zM200 200v75h75v-75h-75zM200 0v75
h75v-75h-75zM100 200v75h75v-75h-75zM300 400v75h75v-75h-75zM200 400v75h75v-75h-75zM200 600v75h75v-75h-75zM300 700v75h75v-75h-75zM100 600v75h75v-75h-75z" />
    <glyph glyph-name="ecircumflex" unicode="&#xea;" 
d="M100 0v75h75v-75h-75zM300 0v75h75v-75h-75zM0 300v75h75v-75h-75zM300 200v75h75v-75h-75zM400 200v75h75v-75h-75zM400 0v75h75v-75h-75zM0 200v75h75v-75h-75zM0 100v75h75v-75h-75zM400 300v75h75v-75h-75zM100 400v75h75v-75h-75zM200 200v75h75v-75h-75zM200 0v75
h75v-75h-75zM100 200v75h75v-75h-75zM300 400v75h75v-75h-75zM200 400v75h75v-75h-75zM100 600v75h75v-75h-75zM200 700v75h75v-75h-75zM300 600v75h75v-75h-75z" />
    <glyph glyph-name="icircumflex" unicode="&#xee;" 
d="M0 0v75h75v-75h-75zM200 400v75h75v-75h-75zM200 0v75h75v-75h-75zM100 400v75h75v-75h-75zM300 0v75h75v-75h-75zM300 600v75h75v-75h-75zM100 600v75h75v-75h-75zM200 100v75h75v-75h-75zM0 400v75h75v-75h-75zM400 0v75h75v-75h-75zM100 0v75h75v-75h-75zM200 200v75
h75v-75h-75zM200 300v75h75v-75h-75zM200 700v75h75v-75h-75z" />
    <glyph glyph-name="ocircumflex" unicode="&#xf4;" 
d="M100 0v75h75v-75h-75zM200 0v75h75v-75h-75zM400 100v75h75v-75h-75zM0 100v75h75v-75h-75zM300 0v75h75v-75h-75zM300 400v75h75v-75h-75zM0 300v75h75v-75h-75zM200 400v75h75v-75h-75zM0 200v75h75v-75h-75zM400 200v75h75v-75h-75zM100 400v75h75v-75h-75zM400 300
v75h75v-75h-75zM100 600v75h75v-75h-75zM200 700v75h75v-75h-75zM300 600v75h75v-75h-75z" />
    <glyph glyph-name="ucircumflex" unicode="&#xfb;" 
d="M100 0v75h75v-75h-75zM0 400v75h75v-75h-75zM400 0v75h75v-75h-75zM200 0v75h75v-75h-75zM0 200v75h75v-75h-75zM0 300v75h75v-75h-75zM400 300v75h75v-75h-75zM300 100v75h75v-75h-75zM400 100v75h75v-75h-75zM400 200v75h75v-75h-75zM400 400v75h75v-75h-75zM0 100v75
h75v-75h-75zM100 600v75h75v-75h-75zM200 700v75h75v-75h-75zM300 600v75h75v-75h-75z" />
    <glyph glyph-name="germandbls" unicode="&#xdf;" 
d="M0 0v75h75v-75h-75zM200 0v75h75v-75h-75zM0 100v75h75v-75h-75zM200 200v75h75v-75h-75zM300 300v75h75v-75h-75zM300 100v75h75v-75h-75zM0 200v75h75v-75h-75zM0 300v75h75v-75h-75zM200 400v75h75v-75h-75zM100 400v75h75v-75h-75z" />
    <glyph glyph-name="scaron" unicode="&#x161;" 
d="M0 0v75h75v-75h-75zM300 0v75h75v-75h-75zM300 200v75h75v-75h-75zM0 300v75h75v-75h-75zM100 400v75h75v-75h-75zM200 400v75h75v-75h-75zM100 0v75h75v-75h-75zM200 200v75h75v-75h-75zM200 0v75h75v-75h-75zM300 400v75h75v-75h-75zM400 100v75h75v-75h-75zM400 400
v75h75v-75h-75zM100 200v75h75v-75h-75zM100 700v75h75v-75h-75zM200 600v75h75v-75h-75zM300 700v75h75v-75h-75z" />
    <glyph glyph-name="Scaron" unicode="&#x160;" 
d="M0 0v75h75v-75h-75zM300 0v75h75v-75h-75zM300 200v75h75v-75h-75zM0 300v75h75v-75h-75zM100 400v75h75v-75h-75zM200 400v75h75v-75h-75zM100 0v75h75v-75h-75zM200 200v75h75v-75h-75zM200 0v75h75v-75h-75zM300 400v75h75v-75h-75zM400 100v75h75v-75h-75zM400 400
v75h75v-75h-75zM100 200v75h75v-75h-75zM100 700v75h75v-75h-75zM200 600v75h75v-75h-75zM300 700v75h75v-75h-75z" />
    <glyph glyph-name="Tcaron" unicode="&#x164;" 
d="M200 0v75h75v-75h-75zM100 400v75h75v-75h-75zM0 400v75h75v-75h-75zM200 400v75h75v-75h-75zM200 200v75h75v-75h-75zM300 400v75h75v-75h-75zM200 300v75h75v-75h-75zM400 400v75h75v-75h-75zM200 100v75h75v-75h-75zM100 700v75h75v-75h-75zM200 600v75h75v-75h-75z
M300 700v75h75v-75h-75z" />
    <glyph glyph-name="Zcaron" unicode="&#x17d;" 
d="M0 0v75h75v-75h-75zM300 0v75h75v-75h-75zM300 300v75h75v-75h-75zM0 400v75h75v-75h-75zM100 400v75h75v-75h-75zM200 400v75h75v-75h-75zM100 0v75h75v-75h-75zM200 200v75h75v-75h-75zM200 0v75h75v-75h-75zM300 400v75h75v-75h-75zM400 0v75h75v-75h-75zM400 400v75
h75v-75h-75zM100 100v75h75v-75h-75zM100 700v75h75v-75h-75zM200 600v75h75v-75h-75zM300 700v75h75v-75h-75z" />
    <glyph glyph-name="zcaron" unicode="&#x17e;" 
d="M0 0v75h75v-75h-75zM300 0v75h75v-75h-75zM300 300v75h75v-75h-75zM0 400v75h75v-75h-75zM100 400v75h75v-75h-75zM200 400v75h75v-75h-75zM100 0v75h75v-75h-75zM200 200v75h75v-75h-75zM200 0v75h75v-75h-75zM300 400v75h75v-75h-75zM400 0v75h75v-75h-75zM400 400v75
h75v-75h-75zM100 100v75h75v-75h-75zM100 700v75h75v-75h-75zM200 600v75h75v-75h-75zM300 700v75h75v-75h-75z" />
    <glyph glyph-name="macron" unicode="&#xaf;" 
d="M100 600v75h75v-75h-75zM300 600v75h75v-75h-75zM200 600v75h75v-75h-75z" />
    <glyph glyph-name="Amacron" unicode="&#x100;" 
d="M0 0v75h75v-75h-75zM0 300v75h75v-75h-75zM200 400v75h75v-75h-75zM0 200v75h75v-75h-75zM400 100v75h75v-75h-75zM100 200v75h75v-75h-75zM200 200v75h75v-75h-75zM300 400v75h75v-75h-75zM400 200v75h75v-75h-75zM0 100v75h75v-75h-75zM400 0v75h75v-75h-75zM400 300
v75h75v-75h-75zM300 200v75h75v-75h-75zM100 400v75h75v-75h-75zM100 600v75h75v-75h-75zM300 600v75h75v-75h-75zM200 600v75h75v-75h-75z" />
    <glyph glyph-name="aacute" unicode="&#xe1;" 
d="M100 0v75h75v-75h-75zM400 300v75h75v-75h-75zM100 200v75h75v-75h-75zM0 100v75h75v-75h-75zM400 100v75h75v-75h-75zM400 200v75h75v-75h-75zM200 0v75h75v-75h-75zM200 400v75h75v-75h-75zM300 200v75h75v-75h-75zM100 400v75h75v-75h-75zM300 0v75h75v-75h-75z
M200 200v75h75v-75h-75zM300 400v75h75v-75h-75zM400 0v75h75v-75h-75zM200 600v75h75v-75h-75zM300 700v75h75v-75h-75zM100 600v75h75v-75h-75z" />
    <glyph glyph-name="iacute" unicode="&#xed;" 
d="M0 0v75h75v-75h-75zM200 300v75h75v-75h-75zM200 400v75h75v-75h-75zM0 400v75h75v-75h-75zM200 0v75h75v-75h-75zM400 0v75h75v-75h-75zM100 0v75h75v-75h-75zM200 600v75h75v-75h-75zM200 100v75h75v-75h-75zM300 700v75h75v-75h-75zM300 0v75h75v-75h-75zM200 200v75
h75v-75h-75zM100 600v75h75v-75h-75zM100 400v75h75v-75h-75z" />
    <glyph glyph-name="oacute" unicode="&#xf3;" 
d="M100 0v75h75v-75h-75zM200 0v75h75v-75h-75zM400 100v75h75v-75h-75zM0 100v75h75v-75h-75zM300 0v75h75v-75h-75zM300 400v75h75v-75h-75zM0 300v75h75v-75h-75zM200 400v75h75v-75h-75zM0 200v75h75v-75h-75zM400 200v75h75v-75h-75zM100 400v75h75v-75h-75zM400 300
v75h75v-75h-75zM200 600v75h75v-75h-75zM300 700v75h75v-75h-75zM100 600v75h75v-75h-75z" />
    <glyph glyph-name="uacute" unicode="&#xfa;" 
d="M100 0v75h75v-75h-75zM0 400v75h75v-75h-75zM400 0v75h75v-75h-75zM200 0v75h75v-75h-75zM0 200v75h75v-75h-75zM0 300v75h75v-75h-75zM400 300v75h75v-75h-75zM300 100v75h75v-75h-75zM400 100v75h75v-75h-75zM400 200v75h75v-75h-75zM400 400v75h75v-75h-75zM0 100v75
h75v-75h-75zM200 600v75h75v-75h-75zM300 700v75h75v-75h-75zM100 600v75h75v-75h-75z" />
    <glyph glyph-name="Aacute" unicode="&#xc1;" 
d="M0 0v75h75v-75h-75zM0 300v75h75v-75h-75zM200 400v75h75v-75h-75zM0 200v75h75v-75h-75zM400 100v75h75v-75h-75zM100 200v75h75v-75h-75zM200 200v75h75v-75h-75zM300 400v75h75v-75h-75zM400 200v75h75v-75h-75zM0 100v75h75v-75h-75zM400 0v75h75v-75h-75zM400 300
v75h75v-75h-75zM300 200v75h75v-75h-75zM100 400v75h75v-75h-75zM200 600v75h75v-75h-75zM300 700v75h75v-75h-75zM100 600v75h75v-75h-75z" />
    <glyph glyph-name="Iacute" unicode="&#xcd;" 
d="M100 0v75h75v-75h-75zM200 400v75h75v-75h-75zM400 0v75h75v-75h-75zM300 400v75h75v-75h-75zM300 0v75h75v-75h-75zM0 400v75h75v-75h-75zM200 300v75h75v-75h-75zM100 400v75h75v-75h-75zM0 0v75h75v-75h-75zM200 0v75h75v-75h-75zM200 200v75h75v-75h-75zM400 400v75
h75v-75h-75zM200 100v75h75v-75h-75zM200 600v75h75v-75h-75zM300 700v75h75v-75h-75zM100 600v75h75v-75h-75z" />
    <glyph glyph-name="Oacute" unicode="&#xd3;" 
d="M200 600v75h75v-75h-75zM300 700v75h75v-75h-75zM100 600v75h75v-75h-75zM100 0v75h75v-75h-75zM0 300v75h75v-75h-75zM400 100v75h75v-75h-75zM0 100v75h75v-75h-75zM300 0v75h75v-75h-75zM200 400v75h75v-75h-75zM200 0v75h75v-75h-75zM100 400v75h75v-75h-75zM0 200
v75h75v-75h-75zM400 200v75h75v-75h-75zM400 300v75h75v-75h-75zM300 400v75h75v-75h-75z" />
    <glyph glyph-name="Ocircumflex" unicode="&#xd4;" 
d="M100 600v75h75v-75h-75zM200 700v75h75v-75h-75zM300 600v75h75v-75h-75zM100 0v75h75v-75h-75zM0 300v75h75v-75h-75zM400 100v75h75v-75h-75zM0 100v75h75v-75h-75zM300 0v75h75v-75h-75zM200 400v75h75v-75h-75zM200 0v75h75v-75h-75zM100 400v75h75v-75h-75zM0 200
v75h75v-75h-75zM400 200v75h75v-75h-75zM400 300v75h75v-75h-75zM300 400v75h75v-75h-75z" />
    <glyph glyph-name="Uacute" unicode="&#xda;" 
d="M100 0v75h75v-75h-75zM400 100v75h75v-75h-75zM300 0v75h75v-75h-75zM400 300v75h75v-75h-75zM0 100v75h75v-75h-75zM400 200v75h75v-75h-75zM0 200v75h75v-75h-75zM0 400v75h75v-75h-75zM200 0v75h75v-75h-75zM400 400v75h75v-75h-75zM0 300v75h75v-75h-75zM200 600v75
h75v-75h-75zM300 700v75h75v-75h-75zM100 600v75h75v-75h-75z" />
    <glyph glyph-name="Yacute" unicode="&#xdd;" 
d="M200 0v75h75v-75h-75zM100 200v75h75v-75h-75zM0 300v75h75v-75h-75zM300 200v75h75v-75h-75zM400 300v75h75v-75h-75zM0 400v75h75v-75h-75zM200 100v75h75v-75h-75zM400 400v75h75v-75h-75zM200 600v75h75v-75h-75zM300 700v75h75v-75h-75zM100 600v75h75v-75h-75z" />
    <glyph glyph-name="yacute" unicode="&#xfd;" 
d="M200 0v75h75v-75h-75zM100 200v75h75v-75h-75zM0 300v75h75v-75h-75zM300 200v75h75v-75h-75zM400 300v75h75v-75h-75zM0 400v75h75v-75h-75zM200 100v75h75v-75h-75zM400 400v75h75v-75h-75zM200 600v75h75v-75h-75zM300 700v75h75v-75h-75zM100 600v75h75v-75h-75z" />
    <glyph glyph-name="edotaccent" unicode="&#x117;" 
d="M100 0v75h75v-75h-75zM300 0v75h75v-75h-75zM0 300v75h75v-75h-75zM300 200v75h75v-75h-75zM400 200v75h75v-75h-75zM400 0v75h75v-75h-75zM0 200v75h75v-75h-75zM0 100v75h75v-75h-75zM400 300v75h75v-75h-75zM100 400v75h75v-75h-75zM200 200v75h75v-75h-75zM200 0v75
h75v-75h-75zM100 200v75h75v-75h-75zM300 400v75h75v-75h-75zM200 400v75h75v-75h-75zM200 600v75h75v-75h-75z" />
    <glyph glyph-name="lslash" unicode="&#x142;" 
d="M102 300v75h75v-75h-75zM200 0v75h75v-75h-75zM100 0v75h75v-75h-75zM300 0v75h75v-75h-75zM100 200v75h75v-75h-75zM400 0v75h75v-75h-75zM100 100v75h75v-75h-75zM0 300v75h75v-75h-75zM100 400v75h75v-75h-75zM200 300v75h75v-75h-75z" />
    <glyph glyph-name="igrave" unicode="&#xec;" 
d="M0 0v75h75v-75h-75zM200 400v75h75v-75h-75zM200 0v75h75v-75h-75zM100 400v75h75v-75h-75zM300 0v75h75v-75h-75zM100 700v75h75v-75h-75zM300 600v75h75v-75h-75zM200 100v75h75v-75h-75zM0 400v75h75v-75h-75zM400 0v75h75v-75h-75zM100 0v75h75v-75h-75zM200 200v75
h75v-75h-75zM200 300v75h75v-75h-75zM200 600v75h75v-75h-75z" />
    <glyph glyph-name="Aring" unicode="&#xc5;" 
d="M0 0v75h75v-75h-75zM0 300v75h75v-75h-75zM200 400v75h75v-75h-75zM0 200v75h75v-75h-75zM400 100v75h75v-75h-75zM100 200v75h75v-75h-75zM200 200v75h75v-75h-75zM300 400v75h75v-75h-75zM400 200v75h75v-75h-75zM0 100v75h75v-75h-75zM400 0v75h75v-75h-75zM400 300
v75h75v-75h-75zM300 200v75h75v-75h-75zM100 400v75h75v-75h-75zM200 600v75h75v-75h-75zM300 700v75h75v-75h-75zM200 800v75h75v-75h-75zM100 700v75h75v-75h-75z" />
    <glyph glyph-name="cedilla" unicode="&#xb8;" 
d="M200 -100v75h75v-75h-75zM100 -200v75h75v-75h-75z" />
    <glyph glyph-name="tilde" unicode="&#x2dc;" 
d="M100 700v75h75v-75h-75zM300 600v75h75v-75h-75zM400 700v75h75v-75h-75zM200 600v75h75v-75h-75zM0 600v75h75v-75h-75z" />
    <glyph glyph-name="otilde" unicode="&#xf5;" 
d="M100 0v75h75v-75h-75zM200 0v75h75v-75h-75zM400 100v75h75v-75h-75zM0 100v75h75v-75h-75zM300 0v75h75v-75h-75zM300 400v75h75v-75h-75zM0 300v75h75v-75h-75zM200 400v75h75v-75h-75zM0 200v75h75v-75h-75zM400 200v75h75v-75h-75zM100 400v75h75v-75h-75zM400 300
v75h75v-75h-75zM100 700v75h75v-75h-75zM300 600v75h75v-75h-75zM400 700v75h75v-75h-75zM200 600v75h75v-75h-75zM0 600v75h75v-75h-75z" />
    <glyph glyph-name="Otilde" unicode="&#xd5;" 
d="M100 700v75h75v-75h-75zM300 600v75h75v-75h-75zM400 700v75h75v-75h-75zM200 600v75h75v-75h-75zM0 600v75h75v-75h-75zM100 0v75h75v-75h-75zM0 300v75h75v-75h-75zM400 100v75h75v-75h-75zM0 100v75h75v-75h-75zM300 0v75h75v-75h-75zM200 400v75h75v-75h-75zM200 0
v75h75v-75h-75zM100 400v75h75v-75h-75zM0 200v75h75v-75h-75zM400 200v75h75v-75h-75zM400 300v75h75v-75h-75zM300 400v75h75v-75h-75z" />
    <glyph glyph-name="Ntilde" unicode="&#xd1;" 
d="M0 0v75h75v-75h-75zM400 400v75h75v-75h-75zM300 100v75h75v-75h-75zM200 200v75h75v-75h-75zM100 300v75h75v-75h-75zM0 300v75h75v-75h-75zM0 100v75h75v-75h-75zM400 0v75h75v-75h-75zM400 100v75h75v-75h-75zM0 400v75h75v-75h-75zM400 300v75h75v-75h-75zM0 200v75
h75v-75h-75zM400 200v75h75v-75h-75zM100 700v75h75v-75h-75zM300 600v75h75v-75h-75zM400 700v75h75v-75h-75zM200 600v75h75v-75h-75zM0 600v75h75v-75h-75z" />
    <glyph glyph-name="atilde" unicode="&#xe3;" 
d="M100 0v75h75v-75h-75zM400 300v75h75v-75h-75zM100 200v75h75v-75h-75zM0 100v75h75v-75h-75zM400 100v75h75v-75h-75zM400 200v75h75v-75h-75zM200 0v75h75v-75h-75zM200 400v75h75v-75h-75zM300 200v75h75v-75h-75zM100 400v75h75v-75h-75zM300 0v75h75v-75h-75z
M200 200v75h75v-75h-75zM300 400v75h75v-75h-75zM400 0v75h75v-75h-75zM100 700v75h75v-75h-75zM300 600v75h75v-75h-75zM400 700v75h75v-75h-75zM200 600v75h75v-75h-75zM0 600v75h75v-75h-75z" />
    <glyph glyph-name="aring" unicode="&#xe5;" 
d="M100 0v75h75v-75h-75zM400 300v75h75v-75h-75zM100 200v75h75v-75h-75zM0 100v75h75v-75h-75zM400 100v75h75v-75h-75zM400 200v75h75v-75h-75zM200 0v75h75v-75h-75zM200 400v75h75v-75h-75zM300 200v75h75v-75h-75zM100 400v75h75v-75h-75zM300 0v75h75v-75h-75z
M200 200v75h75v-75h-75zM300 400v75h75v-75h-75zM400 0v75h75v-75h-75zM200 600v75h75v-75h-75zM300 700v75h75v-75h-75zM200 800v75h75v-75h-75zM100 700v75h75v-75h-75z" />
    <glyph glyph-name="ntilde" unicode="&#xf1;" 
d="M0 0v75h75v-75h-75zM400 200v75h75v-75h-75zM400 100v75h75v-75h-75zM0 300v75h75v-75h-75zM300 400v75h75v-75h-75zM0 100v75h75v-75h-75zM200 400v75h75v-75h-75zM0 200v75h75v-75h-75zM0 400v75h75v-75h-75zM100 300v75h75v-75h-75zM400 0v75h75v-75h-75zM400 300v75
h75v-75h-75zM100 700v75h75v-75h-75zM300 600v75h75v-75h-75zM400 700v75h75v-75h-75zM200 600v75h75v-75h-75zM0 600v75h75v-75h-75z" />
    <glyph glyph-name="ograve" unicode="&#xf2;" 
d="M100 0v75h75v-75h-75zM200 0v75h75v-75h-75zM400 100v75h75v-75h-75zM0 100v75h75v-75h-75zM300 0v75h75v-75h-75zM300 400v75h75v-75h-75zM0 300v75h75v-75h-75zM200 400v75h75v-75h-75zM0 200v75h75v-75h-75zM400 200v75h75v-75h-75zM100 400v75h75v-75h-75zM400 300
v75h75v-75h-75zM300 600v75h75v-75h-75zM200 600v75h75v-75h-75zM100 700v75h75v-75h-75z" />
    <glyph glyph-name="cent" unicode="&#xa2;" 
d="M100 0v75h75v-75h-75zM300 0v75h75v-75h-75zM200 500v75h75v-75h-75zM0 200v75h75v-75h-75zM100 400v75h75v-75h-75zM300 400v75h75v-75h-75zM200 0v75h75v-75h-75zM200 300v75h75v-75h-75zM400 100v75h75v-75h-75zM400 300v75h75v-75h-75zM200 -100v75h75v-75h-75z
M0 100v75h75v-75h-75zM0 300v75h75v-75h-75zM200 200v75h75v-75h-75zM200 400v75h75v-75h-75zM200 100v75h75v-75h-75z" />
    <glyph glyph-name="Oslash" unicode="&#xd8;" 
d="M200 300v75h75v-75h-75zM100 400v75h75v-75h-75zM100 0v75h75v-75h-75zM0 200v75h75v-75h-75zM300 400v75h75v-75h-75zM0 100v75h75v-75h-75zM200 400v75h75v-75h-75zM300 0v75h75v-75h-75zM400 300v75h75v-75h-75zM302 500v75h75v-75h-75zM0 300v75h75v-75h-75zM400 100
v75h75v-75h-75zM200 0v75h75v-75h-75zM400 200v75h75v-75h-75zM202 200v75h75v-75h-75zM102 100v75h75v-75h-75z" />
    <glyph glyph-name="oslash" unicode="&#xf8;" 
d="M1 -100v75h75v-75h-75zM400 100v75h75v-75h-75zM100 100v75h75v-75h-75zM100 0v75h75v-75h-75zM300 400v75h75v-75h-75zM300 300v75h75v-75h-75zM0 100v75h75v-75h-75zM200 400v75h75v-75h-75zM100 400v75h75v-75h-75zM300 0v75h75v-75h-75zM0 300v75h75v-75h-75z
M200 200v75h75v-75h-75zM400 200v75h75v-75h-75zM0 200v75h75v-75h-75zM200 0v75h75v-75h-75zM400 500v75h75v-75h-75zM400 300v75h75v-75h-75z" />
    <glyph glyph-name="Agrave" unicode="&#xc0;" 
d="M0 0v75h75v-75h-75zM0 300v75h75v-75h-75zM200 400v75h75v-75h-75zM0 200v75h75v-75h-75zM400 100v75h75v-75h-75zM100 200v75h75v-75h-75zM200 200v75h75v-75h-75zM300 400v75h75v-75h-75zM400 200v75h75v-75h-75zM0 100v75h75v-75h-75zM400 0v75h75v-75h-75zM400 300
v75h75v-75h-75zM300 200v75h75v-75h-75zM100 400v75h75v-75h-75zM300 600v75h75v-75h-75zM200 600v75h75v-75h-75zM100 700v75h75v-75h-75z" />
    <glyph glyph-name="Atilde" unicode="&#xc3;" 
d="M0 0v75h75v-75h-75zM0 300v75h75v-75h-75zM200 400v75h75v-75h-75zM0 200v75h75v-75h-75zM400 100v75h75v-75h-75zM100 200v75h75v-75h-75zM200 200v75h75v-75h-75zM300 400v75h75v-75h-75zM400 200v75h75v-75h-75zM0 100v75h75v-75h-75zM400 0v75h75v-75h-75zM400 300
v75h75v-75h-75zM300 200v75h75v-75h-75zM100 400v75h75v-75h-75zM100 700v75h75v-75h-75zM300 600v75h75v-75h-75zM400 700v75h75v-75h-75zM200 600v75h75v-75h-75zM0 600v75h75v-75h-75z" />
    <glyph glyph-name="Acircumflex" unicode="&#xc2;" 
d="M0 0v75h75v-75h-75zM0 300v75h75v-75h-75zM200 400v75h75v-75h-75zM0 200v75h75v-75h-75zM400 100v75h75v-75h-75zM100 200v75h75v-75h-75zM200 200v75h75v-75h-75zM300 400v75h75v-75h-75zM400 200v75h75v-75h-75zM0 100v75h75v-75h-75zM400 0v75h75v-75h-75zM400 300
v75h75v-75h-75zM300 200v75h75v-75h-75zM100 400v75h75v-75h-75zM100 600v75h75v-75h-75zM200 700v75h75v-75h-75zM300 600v75h75v-75h-75z" />
    <glyph glyph-name="Egrave" unicode="&#xc8;" 
d="M0 0v75h75v-75h-75zM400 0v75h75v-75h-75zM100 200v75h75v-75h-75zM300 0v75h75v-75h-75zM300 400v75h75v-75h-75zM0 200v75h75v-75h-75zM300 200v75h75v-75h-75zM0 400v75h75v-75h-75zM100 400v75h75v-75h-75zM200 400v75h75v-75h-75zM200 0v75h75v-75h-75zM0 300v75h75
v-75h-75zM0 100v75h75v-75h-75zM200 200v75h75v-75h-75zM400 400v75h75v-75h-75zM100 0v75h75v-75h-75zM300 600v75h75v-75h-75zM200 600v75h75v-75h-75zM100 700v75h75v-75h-75z" />
    <glyph glyph-name="Icircumflex" unicode="&#xce;" 
d="M100 0v75h75v-75h-75zM200 400v75h75v-75h-75zM400 0v75h75v-75h-75zM300 400v75h75v-75h-75zM300 0v75h75v-75h-75zM0 400v75h75v-75h-75zM200 300v75h75v-75h-75zM100 400v75h75v-75h-75zM0 0v75h75v-75h-75zM200 0v75h75v-75h-75zM200 200v75h75v-75h-75zM400 400v75
h75v-75h-75zM200 100v75h75v-75h-75zM100 600v75h75v-75h-75zM200 700v75h75v-75h-75zM300 600v75h75v-75h-75z" />
    <glyph glyph-name="Idieresis" unicode="&#xcf;" 
d="M100 0v75h75v-75h-75zM200 400v75h75v-75h-75zM400 0v75h75v-75h-75zM300 400v75h75v-75h-75zM300 0v75h75v-75h-75zM0 400v75h75v-75h-75zM200 300v75h75v-75h-75zM100 400v75h75v-75h-75zM0 0v75h75v-75h-75zM200 0v75h75v-75h-75zM200 200v75h75v-75h-75zM400 400v75
h75v-75h-75zM200 100v75h75v-75h-75zM0 600v75h75v-75h-75zM400 600v75h75v-75h-75zM0 700v75h75v-75h-75zM400 700v75h75v-75h-75z" />
    <glyph glyph-name="Igrave" unicode="&#xcc;" 
d="M100 0v75h75v-75h-75zM200 400v75h75v-75h-75zM400 0v75h75v-75h-75zM300 400v75h75v-75h-75zM300 0v75h75v-75h-75zM0 400v75h75v-75h-75zM200 300v75h75v-75h-75zM100 400v75h75v-75h-75zM0 0v75h75v-75h-75zM200 0v75h75v-75h-75zM200 200v75h75v-75h-75zM400 400v75
h75v-75h-75zM200 100v75h75v-75h-75zM300 600v75h75v-75h-75zM200 600v75h75v-75h-75zM100 700v75h75v-75h-75z" />
    <glyph glyph-name="Ograve" unicode="&#xd2;" 
d="M300 600v75h75v-75h-75zM200 600v75h75v-75h-75zM100 700v75h75v-75h-75zM100 0v75h75v-75h-75zM0 300v75h75v-75h-75zM400 100v75h75v-75h-75zM0 100v75h75v-75h-75zM300 0v75h75v-75h-75zM200 400v75h75v-75h-75zM200 0v75h75v-75h-75zM100 400v75h75v-75h-75zM0 200
v75h75v-75h-75zM400 200v75h75v-75h-75zM400 300v75h75v-75h-75zM300 400v75h75v-75h-75z" />
    <glyph glyph-name="Ucircumflex" unicode="&#xdb;" 
d="M100 0v75h75v-75h-75zM400 100v75h75v-75h-75zM300 0v75h75v-75h-75zM400 300v75h75v-75h-75zM0 100v75h75v-75h-75zM400 200v75h75v-75h-75zM0 200v75h75v-75h-75zM0 400v75h75v-75h-75zM200 0v75h75v-75h-75zM400 400v75h75v-75h-75zM0 300v75h75v-75h-75zM100 600v75
h75v-75h-75zM200 700v75h75v-75h-75zM300 600v75h75v-75h-75z" />
    <glyph glyph-name="Ugrave" unicode="&#xd9;" 
d="M100 0v75h75v-75h-75zM400 100v75h75v-75h-75zM300 0v75h75v-75h-75zM400 300v75h75v-75h-75zM0 100v75h75v-75h-75zM400 200v75h75v-75h-75zM0 200v75h75v-75h-75zM0 400v75h75v-75h-75zM200 0v75h75v-75h-75zM400 400v75h75v-75h-75zM0 300v75h75v-75h-75zM300 600v75
h75v-75h-75zM200 600v75h75v-75h-75zM100 700v75h75v-75h-75z" />
    <glyph glyph-name="Edieresis" unicode="&#xcb;" 
d="M0 0v75h75v-75h-75zM400 0v75h75v-75h-75zM100 200v75h75v-75h-75zM300 0v75h75v-75h-75zM300 400v75h75v-75h-75zM0 200v75h75v-75h-75zM300 200v75h75v-75h-75zM0 400v75h75v-75h-75zM100 400v75h75v-75h-75zM200 400v75h75v-75h-75zM200 0v75h75v-75h-75zM0 300v75h75
v-75h-75zM0 100v75h75v-75h-75zM200 200v75h75v-75h-75zM400 400v75h75v-75h-75zM100 0v75h75v-75h-75zM0 600v75h75v-75h-75zM400 600v75h75v-75h-75zM0 700v75h75v-75h-75zM400 700v75h75v-75h-75z" />
    <glyph glyph-name="Ecircumflex" unicode="&#xca;" 
d="M0 0v75h75v-75h-75zM400 0v75h75v-75h-75zM100 200v75h75v-75h-75zM300 0v75h75v-75h-75zM300 400v75h75v-75h-75zM0 200v75h75v-75h-75zM300 200v75h75v-75h-75zM0 400v75h75v-75h-75zM100 400v75h75v-75h-75zM200 400v75h75v-75h-75zM200 0v75h75v-75h-75zM0 300v75h75
v-75h-75zM0 100v75h75v-75h-75zM200 200v75h75v-75h-75zM400 400v75h75v-75h-75zM100 0v75h75v-75h-75zM100 600v75h75v-75h-75zM200 700v75h75v-75h-75zM300 600v75h75v-75h-75z" />
    <glyph glyph-name="Ccedilla" unicode="&#xc7;" 
d="M100 0v75h75v-75h-75zM400 0v75h75v-75h-75zM300 0v75h75v-75h-75zM100 400v75h75v-75h-75zM0 100v75h75v-75h-75zM0 300v75h75v-75h-75zM0 200v75h75v-75h-75zM200 400v75h75v-75h-75zM200 0v75h75v-75h-75zM300 400v75h75v-75h-75zM400 400v75h75v-75h-75zM200 -100v75
h75v-75h-75zM100 -200v75h75v-75h-75z" />
    <glyph glyph-name="ae" unicode="&#xe6;" 
d="M100 0v75h75v-75h-75zM200 100v75h75v-75h-75zM400 0v75h75v-75h-75zM300 0v75h75v-75h-75zM100 200v75h75v-75h-75zM100 400v75h75v-75h-75zM400 300v75h75v-75h-75zM200 300v75h75v-75h-75zM0 100v75h75v-75h-75zM200 0v75h75v-75h-75zM300 200v75h75v-75h-75zM300 400
v75h75v-75h-75zM200 200v75h75v-75h-75z" />
    <glyph glyph-name="AE" unicode="&#xc6;" 
d="M0 0v75h75v-75h-75zM200 200v75h75v-75h-75zM200 300v75h75v-75h-75zM0 300v75h75v-75h-75zM200 100v75h75v-75h-75zM200 0v75h75v-75h-75zM400 400v75h75v-75h-75zM400 0v75h75v-75h-75zM100 100v75h75v-75h-75zM0 200v75h75v-75h-75zM100 400v75h75v-75h-75zM300 0v75
h75v-75h-75zM300 400v75h75v-75h-75zM0 100v75h75v-75h-75zM200 400v75h75v-75h-75zM300 200v75h75v-75h-75z" />
    <glyph glyph-name="OE" unicode="&#x152;" 
d="M100 0v75h75v-75h-75zM200 300v75h75v-75h-75zM200 200v75h75v-75h-75zM400 400v75h75v-75h-75zM200 100v75h75v-75h-75zM200 0v75h75v-75h-75zM0 300v75h75v-75h-75zM200 400v75h75v-75h-75zM300 0v75h75v-75h-75zM300 200v75h75v-75h-75zM400 0v75h75v-75h-75zM100 400
v75h75v-75h-75zM0 200v75h75v-75h-75zM300 400v75h75v-75h-75zM0 100v75h75v-75h-75z" />
    <glyph glyph-name="questiondown" unicode="&#xbf;" 
d="M275 475v-75h-75v75h75zM375 75v-75h-75v75h75zM75 175v-75h-75v75h75zM475 175v-75h-75v75h75zM275 275v-75h-75v75h75zM275 75v-75h-75v75h75zM175 275v-75h-75v75h75zM175 75v-75h-75v75h75z" />
    <glyph glyph-name="exclamdown" unicode="&#xa1;" 
d="M200 400v75h75v-75h-75zM200 100v75h75v-75h-75zM200 200v75h75v-75h-75zM200 0v75h75v-75h-75z" />
    <glyph glyph-name="ydieresis" unicode="&#xff;" 
d="M200 0v75h75v-75h-75zM100 200v75h75v-75h-75zM0 300v75h75v-75h-75zM300 200v75h75v-75h-75zM400 300v75h75v-75h-75zM0 400v75h75v-75h-75zM200 100v75h75v-75h-75zM400 400v75h75v-75h-75zM0 600v75h75v-75h-75zM400 600v75h75v-75h-75zM0 700v75h75v-75h-75zM400 700
v75h75v-75h-75z" />
    <glyph glyph-name="Ydieresis" unicode="&#x178;" 
d="M200 0v75h75v-75h-75zM100 200v75h75v-75h-75zM0 300v75h75v-75h-75zM300 200v75h75v-75h-75zM400 300v75h75v-75h-75zM0 400v75h75v-75h-75zM200 100v75h75v-75h-75zM400 400v75h75v-75h-75zM0 600v75h75v-75h-75zM400 600v75h75v-75h-75zM0 700v75h75v-75h-75zM400 700
v75h75v-75h-75z" />
    <glyph glyph-name="Eth" unicode="&#xd0;" 
d="M100 0v75h75v-75h-75zM200 200v75h75v-75h-75zM200 400v75h75v-75h-75zM0 200v75h75v-75h-75zM300 0v75h75v-75h-75zM400 100v75h75v-75h-75zM100 300v75h75v-75h-75zM200 0v75h75v-75h-75zM100 400v75h75v-75h-75zM300 400v75h75v-75h-75zM100 100v75h75v-75h-75z
M400 300v75h75v-75h-75zM100 200v75h75v-75h-75zM400 200v75h75v-75h-75z" />
    <glyph glyph-name="thorn" unicode="&#xfe;" 
d="M0 100v75h75v-75h-75zM300 100v75h75v-75h-75zM400 200v75h75v-75h-75zM100 100v75h75v-75h-75zM200 100v75h75v-75h-75zM100 300v75h75v-75h-75zM0 0v75h75v-75h-75zM0 200v75h75v-75h-75zM300 300v75h75v-75h-75zM200 300v75h75v-75h-75zM0 400v75h75v-75h-75zM0 300
v75h75v-75h-75z" />
    <glyph glyph-name="Thorn" unicode="&#xde;" 
d="M0 0v75h75v-75h-75zM0 200v75h75v-75h-75zM300 100v75h75v-75h-75zM200 100v75h75v-75h-75zM100 100v75h75v-75h-75zM200 300v75h75v-75h-75zM0 100v75h75v-75h-75zM100 300v75h75v-75h-75zM0 300v75h75v-75h-75zM400 200v75h75v-75h-75zM300 300v75h75v-75h-75zM0 400
v75h75v-75h-75z" />
    <glyph glyph-name="eth" unicode="&#xf0;" 
d="M100 400v75h75v-75h-75zM275 437c0 -21 -16 -37 -37 -37s-38 16 -38 37s17 38 38 38s37 -17 37 -38zM475 437c0 -21 -16 -37 -37 -37s-38 16 -38 37s17 38 38 38s37 -17 37 -38zM175 437c0 -21 -16 -37 -37 -37s-38 16 -38 37s17 38 38 38s37 -17 37 -38zM200 400v75h75
v-75h-75zM400 400v75h75v-75h-75zM300 300v75h75v-75h-75zM400 200v75h75v-75h-75zM300 200v75h75v-75h-75zM200 200v75h75v-75h-75zM100 200v75h75v-75h-75zM0 100v75h75v-75h-75zM100 0v75h75v-75h-75zM200 0v75h75v-75h-75zM300 0v75h75v-75h-75zM400 100v75h75v-75h-75z
" />
    <glyph glyph-name="multiply" unicode="&#xd7;" 
d="M100 100v75h75v-75h-75zM200 200v75h75v-75h-75zM300 300v75h75v-75h-75zM0 0v75h75v-75h-75zM0 400v75h75v-75h-75zM400 0v75h75v-75h-75zM300 100v75h75v-75h-75zM400 400v75h75v-75h-75zM100 300v75h75v-75h-75z" />
    <glyph glyph-name="onequarter" unicode="&#xbc;" 
d="M500 0v75h75v-75h-75zM0 400v75h75v-75h-75zM200 200v75h75v-75h-75zM200 100v75h75v-75h-75zM300 400v75h75v-75h-75zM300 300v75h75v-75h-75zM100 300v75h75v-75h-75zM400 200v75h75v-75h-75zM100 200v75h75v-75h-75zM500 100v75h75v-75h-75zM100 0v75h75v-75h-75z
M500 300v75h75v-75h-75zM100 400v75h75v-75h-75zM500 200v75h75v-75h-75z" />
    <glyph glyph-name="threequarters" unicode="&#xbe;" 
d="M500 0v75h75v-75h-75zM100 300v75h75v-75h-75zM300 400v75h75v-75h-75zM200 100v75h75v-75h-75zM500 100v75h75v-75h-75zM100 200v75h75v-75h-75zM200 200v75h75v-75h-75zM100 0v75h75v-75h-75zM0 100v75h75v-75h-75zM500 200v75h75v-75h-75zM400 200v75h75v-75h-75z
M500 300v75h75v-75h-75zM0 400v75h75v-75h-75zM300 300v75h75v-75h-75z" />
    <glyph glyph-name="ordfeminine" unicode="&#xaa;" 
d="M100 200v75h75v-75h-75zM100 500v75h75v-75h-75zM0 300v75h75v-75h-75zM200 400v75h75v-75h-75zM200 300v75h75v-75h-75zM100 300v75h75v-75h-75zM200 200v75h75v-75h-75z" />
    <glyph glyph-name="ordmasculine" unicode="&#xba;" 
d="M100 300v75h75v-75h-75zM200 400v75h75v-75h-75zM100 500v75h75v-75h-75zM0 400v75h75v-75h-75z" />
    <glyph glyph-name="A" unicode="A" 
d="M0 0v75h75v-75h-75zM0 300v75h75v-75h-75zM200 400v75h75v-75h-75zM0 200v75h75v-75h-75zM400 100v75h75v-75h-75zM100 200v75h75v-75h-75zM200 200v75h75v-75h-75zM300 400v75h75v-75h-75zM400 200v75h75v-75h-75zM0 100v75h75v-75h-75zM400 0v75h75v-75h-75zM400 300
v75h75v-75h-75zM300 200v75h75v-75h-75zM100 400v75h75v-75h-75z" />
    <glyph glyph-name="O" unicode="O" 
d="M100 0v75h75v-75h-75zM0 300v75h75v-75h-75zM400 100v75h75v-75h-75zM0 100v75h75v-75h-75zM300 0v75h75v-75h-75zM200 400v75h75v-75h-75zM200 0v75h75v-75h-75zM100 400v75h75v-75h-75zM0 200v75h75v-75h-75zM400 200v75h75v-75h-75zM400 300v75h75v-75h-75zM300 400
v75h75v-75h-75z" />
  </font>
</defs>
</svg>
